<?xml version="1.0" encoding="UTF-8"?><svg id="Layer_2" xmlns="http://www.w3.org/2000/svg" viewBox="0 0 1024 1024"><defs><style>.cls-1{fill:#b90b09;}.cls-2{fill:#0867d0;}.cls-3{fill:#8c0d09;}.cls-4{fill:#042b69;}.cls-5{fill:#f8f5f5;}.cls-6{fill:#061535;}</style></defs><g id="Layer_1-2"><path class="cls-6" d="M543.18,345.78l32.41,4.99c8.48,1.31,16.48,3.05,24.98,3.91,3.59.36,6.05-.07,7.49-3.73.14-.36.89-.58.56-1.07-.19-.3-.62-.52-.68-.74-.07-.4.09-1.01.06-1.45,5.56,1.75,12.21-.99,18-1.29,13,9.22,14.45,5.03,18.63,6.38,13.17,4.25,28.47,4.33,41.38,8.45,1.64,1.26,1.49,6.37.2,7.88-.8.93-3.42.6-3.42,2.8l.09,57.07.43,38.13c.03,3.06,5.09,6.72,1.35,10.55-2.89.28-6.39.08-9.63.87,1.76,8.95,6.02,7.39,3.38,20.05,32.48,1.95,63.76,5.68,95.69,12.36l4.92,12.02c-1.44-3.52,5.53,23.56,7.2,20.99,1.14,7.24,4.15,14.76,6.81,22.07l3.74,10.28,3.53,10.51c1.14,3.38,2.45,6.11,3.45,9.51,3.15,10.73,7.07,20.79,10.58,31.37l12.18,36.69,9.18,26.97,6.84,20.76c1.75,5.33,3.51,10.17,4.61,16-10.07-1.45-18.99-3.8-28.27-6.97-2.04-.7-5.47-2.32-7.27-.61-2.02,1.94-3.37,4.65-5.2,6.87l-24.04,29.12c-4.16,5.04-5.85,7.34-9.7,12.05-1.6,1.96-4.06,2.53-4.73,5.46-.61,2.67-3.73,3.42-5.9,2.76-63.59-19.25-130.82-26.47-197.91-29.41-101.34-4.44-204.84.84-302.1,27.46-1.44-.05-2.53-.75-3.8-2.05l-9.81-10.15c-2.53-2.62-4.74-5.16-7.14-7.95l-19.87-23.11c-10.05-11.69-17.88-24.63-22.86-39.56,5.36-.39,9.18,2.41,13.44,3.73,5.76,1.78,11.75,1.89,17.62,2.63l17.34,2.2c-12.85-8.37-20.92-21.01-20.92-35.58v-71c0-20.31.98-40.76-.95-60.24-5.32-8.07-13.6-13.55-19.66-21.48l6.62-1.28c2.62-.51,12.05-.49,15.1-2.98l53.25-6.39,9.83-.34c4.21-.14,8.02-1.5,12.74-1.2,2.52.16,5.83-1.24,8.84-1.45l51.49-3.64c-1.48-4.42-19.18-4.96-26.49-10.85-1.11,2.56-1.81,5.52-4.5,7.05-2.33,1.32-5.11.23-6.72-1.21-4.2-3.74-1.76-8.89-2.65-13.53,10.78-1.36,21.61-.08,32.65.82,3.52.29,7.4.06,10.94.22l48.5,2.2,90.74,3.7c11.51.47,22.32.73,33.28.7l17.06-.05c1.7,0,2.96-.52,4.07-.99,3.41-1.45,7.59.15,11.11-3.43l-28.82.15c-10.93.06-19.63-.1-30.51-.43l-31.53-.96-35.77-.98-32.09-.88c-5.08-.14-45.44-1.41-46.49-1.3-3.89.41-7.41-.97-11.15-1l-32.6-.19c-.48.47-.35,2.16-.32,2.4-2.26.42-4.36-.13-6.4-1.42-3.51-2.23-2.08-10.21-1.68-10.65.49-.54,1.87-.64,2.9-1.59.23-25.33.7-50.18-.36-75.47.12,2.94-5.02-7.7-1.77-8.96,1.05-.41,2.27-.22,3.35-.33-.88.59-1.27,1.58-1.91,2.36s-.53,3.52.81,3.25l23.29-4.54c16.14-3.15,31.83-5.76,48.05-8.43l40.76-6.7,84.06-15.07c.86-.16,1.88.11,2.76.02.72-.08,1.6.26,2.43-.02.57-.19,1.74-.7.99-1.66l1.68.02c-.68,2.09,15.57-1.71,16.29-2.17,1.82,0,4.14.43,5.97.71ZM507.78,433.64c-1.99-.2-3.9,1.28-5.88,1.27l.14-71.78c0-.79-.73-1.23-.95-1.19-.47.96,1-5.88-1.78-6.89-.64-.23-1.52.32-2.12.86-7.03-.62-14.21,2.07-21.5,3.5-4.47.88-8.92.58-12.66,3.95l-.28,51.6c-.02,3.58.96,6.68.99,10.04l.35,39.82c0,.68,1.79,1.3,1.76,1.71-.04.59-1.71.77-1.91,1.33-1.92.06-4.03.41-5.94.14-.04-.59-.42-1.18-.41-1.77l.75-38.22c.06-2.93-1.17-5.4-1.19-8.15l-.36-56.86c-.45-.66-2.09.06-2.73.15-5.81.86-17.52,1.63-22.95,4.42-4.22,2.17-1.38,6.67-1.37,9.66l.23,49.8,1.04,6.95-.05,32.01c2.94,1.38,20.62-2.24,18.04,2h-15c9.76,0-16.18-1.88-9.33-1.08-.75-.09-.7-1.05-.69-1.87.93.38,1.07-.94,1.05-1.54s-.08-1.92-1.01-1.59c0-.61,0-1.22,0-1.83,1.62-2.88,1.73-7.35-.08-10.15l-.08-29.79c.54-.46,1.05-1.05,1.16-1.67.18-1.05-.68-2.24-1.74-1.7.16-1.26.24-2.51-.01-3.77,2.48-1.57,3.07-7.24.02-8.23.34-3.24.08-6.53-.05-9.77-.01-.27.13-.72,0-1,.18-2.8.26-7.05,0-10,1.42-1.53.72-4.08.68-6.08-.05-2.79.12-5.61-.21-8.97-.11-1.11-1.91-.67-2.57-.71,2.7.16-21.3,2.73-20.4,4.66l.4,36.6c.06,5.17,2.17,9.63,2.57,14.59l1.12,13.94.87,26.67c4.71.69,9.14.26,12.31,2.32h-24s-.2-1.02-.2-1.02c.51-.13.93-.56,1.42-.73.42-.14.99,0,1.23-.31.35-.44.63-1.02.62-1.88l-.11-18.05c0-.88-.96-1.97-1.62-1.32.25-2.58.63-5.17-.2-7.71l-.23-61.22c.69-1.85-1.35-2.65-2.09-.81-1.61.58-17.55,3.63-13.73,6.97l-.98,26.9c-.08,2.31-3.16,6.01.02,8.3l.06,2.8c.29,14.21,2.35,22.91,1.62,40.1-.09,2.04.38,4.2,1.57,5.07,3.3,2.39,10.79-1.17,9.62,2.88l-19.91-.99c1.26-3.67.9-7.69.91-12.01v-25c.02-4.63.13-9.37-2-12.99v-29c1.78-2.34,1.68-6.6,0-9,.2.29-.92-2.06-1.53-1.89s-.57,1.31-.77,1.61c-4.84.42-9.9,1.68-15.39,2.99-.72,7.84.15,39.89,1.32,46.48,1.25,7.06.04,14.13.94,21.48.68,5.61-1.78,11.55.33,16.97-2.2-.11-4.56.93-6.81.29l-.02-1.14c-.15-7.14.85-9.33-2.22-8.78-3.35.6-7.76-1.02-11.1.96-2.83,1.68-1.25,6.21-1.62,8.77-2.08-.09-4.36.74-6.81-.39-.15-2.5,1.53-6.38-.14-9.07-1.03-1.66-6.48-1.43-7.55,0-.62,2.86,1.27,6.25,1.17,9.15-1.68.42-3.6-.33-4.09,2.22,5.28.68,10.24.24,15.22.31,2.61,1.78,6.36,2.32,10.04,2.08,7.59-.48,14.66.38,22.12.63l40.89,1.37,44.58,1.6,34.05.95,33.95.94,23.42.93c1.01.04,2.03-.54,2.92-.54,7.16.37,14.43.5,22.05.05,1.51-.09,1.84-1.83,2.03-2.59.24-.98.3-3.51-1.38-3.76-7.75-1.15-15.3-.55-22.69-.55-1.23-14.99-.7-30.11-.64-45.18,1.17-.02,2.34.03,3.51.14.13,4.04.63,8.14.46,13.07-.33,9.71-.51,19.3-.25,29.93l28.05-.16c3.81-2.14,2.33-13.78,6.05-19.85,3.93-6.43,10.93-23.49,10.74-29.57-.11-3.55,3.9-7.07,4.02-10.65.47-14.65,2.47-28.58,6.42-42.72.54-1.95.99-4.7.04-6.58l-39.9-6.2c-5.22-.81-10-2.99-15.4,0l.26,65.5-.56,3.02c-1.11-.43-2.32-.41-3.42.02l-.28-22.64.44-45.22c.01-1.28-.06-2.39-.99-2.96-.58-.36-1.55-.07-2.34-.02-11.1.67-22.23,2.61-33.45,5.51-1.39,6.68-.19,12.97-.11,19.64l.6,45.87c.06,4.82.36,9.54,1.65,13.63ZM631.06,376.68l-.8-.03c-.17-.63-.08-.98-.34-1.28-.33-.37-1.16-.59-1.48-.36-.9.62-.69,3.44.74,4.08l32.52,96.08c1.31-10.35-4.21-19.12-7.23-28.48l-12.47-38.66c-.22-.67-.07-2.14-1.05-2.09l-1.12-4.86c0-.88.35-2.21,1.18-2.4l15.71,41.74,10.72,25.82c1.07-2.9-1.33-4.74-1.98-7.21-1.84-7-3.19-13.94-6.46-19.9-6.41-23-14.39-45.65-22.12-68.24-1.01-2.96-.55-5.91-2.18-8.98-2.05-3.86-.57-7.86-4.55-10.02-3.33-1.81-6.08-2.28-10.24-1.92-2.96.25-6.03.56-9.66-.74-.05,2.67-.75,5.71.68,9.06,1.45-2.61,1.19-5.08,4.45-6.35,1.66,3.27.62,6.91,1.16,10.59,2.41,16.32,25.84,6.63,14.51,14.14ZM635.97,355.71c-.14,1.05.05,2.05.45,3.22.91,2.61,33.49,4.94,40.02,8.03-11.67,2.86-27.92-4.55-37.07-2.49-.74.58-.34,2.66-.15,3.47,2.1,9.28,7.04,26.91,11.67,36.16,2.09,4.17,2.41,9.36,3.89,14.08,1.95,6.24,7.13,1.84,7.11,6.02l-2.8-.06c-.4-.08-.85.02-1.43.08-.5.05-.88.25-.54.94-.25,1.09.68,1.86.97,2.77l11.42,34.77c.9,2.73,2.57,4.62,4.5,5.16,1.53.42,6.63.99,6.66-1l.41-31.86c.03-2.46.13-4.77-1.21-6.33.17-.47-.11-1.19.13-1.63,1.44-2.62,1.09-5.72,1.08-9.1l-.13-48.3c-2.54-.9-2.66-2.86-.11-2.67,1.67.03,3.37.38,4.05-.67.36-.55.53-1.6.21-2.28.03-.46,0-1.06-.26-1.37-.57-.67-1.5-.69-2.59-.88l-46.08-7.97c-.57.68-.15,1.53-.2,1.93ZM583.1,482.09c.12-.59.16-1.2.24-1.8,2.78-1.45,2.62-5.63,3.52-8.48l13.13-41.78c2.22-7.08,5.25-14.02,7.97-20.89,2.7,2.34-5.48,16.96-3.53,21.12l12.69-38.07c2.22-6.65,5.45-12.57,5.62-19.21-1.87.9-1.81,2.69-3.59,3,.66-1.17-.7-1.93-.89-2.76-.37-1.67-1.5-2.74-2.33-4.14-.89-1.51-.41-3.93-3.46-5.2-2.55,10.71-13.54,36.53-14.15,45.15-.23,3.26-1.41,4.88-2.51,7.63-3.34,8.33-5.85,17-8.18,25.74-1.01,3.8-2.73,6.57-3.74,10.32l-4.23,15.77c-.39,1.46-9.44,15.72-5.89,19.54,1.55,1.66,4.85.59,6.68.07,2.32-.67,2.2-3.78,2.66-6.03ZM330.24,436.55c-.7-.14-1.53.43-2.25.41-.91-.03-1.82.04-2.73.07.02-.33-.07-.75-.12-1.08l-.15-.95c.42.01,1.09.18,1.45-.04.48-.3.6-1.03.6-1.91l-.05-33.07c0-1.19-1.49-1.18-2-.98l.07-10.01c.08-.8,1.5-1.76.16-2.76-.69-.51-1.43-1.69-2.27-1.44-3.58,1.08-3.45,3-3.95,5.39-.56,2.62-.22,5-.2,8.06l.2,31.76c-1.78,3.54-1.62,8.44,0,12,.17,1.35.23,3.41.2,4.83-.03,1.87-1.35,5.92.59,7.29,7.89.2,15.55-.73,23.18.09,2.47.27,2.45-1.65,3.29-2.09,2.2-1.14,1.7-3.72,1.7-6.08,0-2.65-.24-5.3-.08-7.96.03-.45-.53-.96-.81-1.25-.25-.27-.57-.46-.79-.76.09-.31-.14-.75,0-1.04,1.9-4.05-.09-8.64.61-12.9.55-3.36-.64-6.53-.67-10.22l-.24-29.91c0-.63-.33-1.15-1.04-1.02-9.08,1.74-14.76.68-14.82,8.18-.1,11.72-.47,22.95.09,34.7.21,4.42,2.22,8.93.02,12.69ZM682.89,470.42c-2.52-1.03-6.22-1.09-8.37.13-1.42.8-.61,4.32.49,5.08.99.68,9,1.66,9.24-1.08.08-.91.32-3.44-1.35-4.12ZM665.26,485.26c1.7-4.01.92-7.57-2.2-9.62-.97,3.63-.48,6.88,2.2,9.62ZM334.11,484.94c.47-2.56.72-5.5-1.91-6.83-1.69-.85-4.4-.12-6.14,1.48-1.45,1.33-1.16,3.53-.61,5.82.66,2.79,2.15,4.84,4.88,4.32,2.02-.38,3.33-2.34,3.78-4.79ZM617.66,484.7c4.26,3.9,2.7,8.74,3.41,14.17,3.89-3.81,1.77-9.68-.39-13.49-1.91-3.38-4.71-3.97-8.12-3.92-6.2.09-11.78,12.74-7.71,16.77,2.04-4.76,1.7-9.01,5.12-12.23,1.98-1.87,5.24-3.54,7.69-1.29ZM661.6,483.05c-.81-1.15-12.29-.26-13.67,2.71,1.66.56,17.55,2.79,13.67-2.71ZM612.04,496.9c2.5.85,4.74,1.26,6.01-1.72.81-1.89,1.95-3.38,0-5.87-.98-1.25-3.02-2.74-5.25-1.91-3.18,1.18-4.59,5.32-3.45,8.87.26.81,1.64.8,2.68.64ZM661.72,498.17c1.3-4.14,2.06-7.51,1.8-11.24-3.41,3.08-3.91,7.72-1.8,11.24ZM535.95,489.46c-2.64-2.94-7.18-2.19-9.21.37-.76.96-.81,2.18-.51,2.71.32.58,1.77,1.01,3.16.33,1.11-.54,1.08-3.01,2.43-3.46,1.25-.42,2.5,1.47,4.13.05ZM669.08,498.51c.35.15.9-.15,1.85.09,1.6.42,3.49.89,4.62-.62,2.47-3.27,1.7-8.87-.08-8.66-.92.11.05,1.88-.99,2.74-.88-1.95-1.99-4.06-4.13-4.16-2.53-.11-4.67,1.64-5.66,4.16-.67,1.72-1.12,3.36-.24,4.84.73,1.22,2.25,1.87,4.63,1.6ZM541.59,489.46c-.64-.62-2.02-1.31-3.69.05,5.33.07,2.07,14.53,4.95,6.78.83-2.25.55-5.06-1.27-6.82ZM585.79,498.02c2.17-1.92,1.09-6.64-.8-7.51-2.21-1.01-5.92-.86-7.55.41-1.47,1.15-2.2,6.12-.63,7.13,2.24.95,6.81.58,8.98-.03ZM529,494.5c0-.28-.22-.5-.5-.5s-.5.22-.5.5.22.5.5.5.5-.22.5-.5ZM567.7,650.46c7.72-2.95,12.27-8.02,14.34-15.41,2.67-9.52,3.15-19.08,2.09-29.06-1.02-9.61-6.16-17.79-14.78-22.13-28.51-14.37-59.55-14.04-84.98-23.07-3.38-1.2-5.11-4.04-5.08-7.34.03-2.3,1.73-5.82,5.08-6.02,25.2-1.55,52.74-.93,76.79,7.34l16.1,7.36.05-48.44c-29.5-16.34-86.48-15.25-119.16-11.74-8.74.94-16.99,2.63-24.31,6.83-20.25,11.62-19.35,27.52-17.84,50.15s25.54,29.89,43.82,34.4c12.17,3.01,23.93,5.55,36.29,7.57,6.56,1.08,12.83,2.58,18.87,4.94,3.51,1.37,5.37,4.02,5.11,7.7-.79,11.04-29.57,7.33-38.1,7.46-21.18-.95-40.99-6.56-59.91-16.8l-.34,43.97c14.86,4.99,29.57,7.47,45.3,8.74,27.43,1.6,75.11,3.31,100.69-6.45ZM243.33,640.44c.05,18.92,7.12,32.69,24.86,38.08,24.19,7.36,74.79-4.61,99.4-13.03,10.83-3.7,20.33-8.92,29.02-15.82,4.53-3.6,10.41-20.65,10.43-28.84l.25-104.14,8.05-11.18c-23.56-.31-46.59,1.39-70.69,2.95,1.79,5.02,4.25,8.04,7.25,11.95l-.16,94.56c-.03,14.85-23.66,20.24-33.28,15.27-3.66-1.89-5.61-6.9-5.62-11.27l-.12-96.3,5.2-11.85c-27.38,2.09-53.86,5.45-81.12,9l6.22,9.21.31,111.39ZM720.16,670.5c.69,2.54.92,4.33,3.52,4.93,25.37,5.85,49.74,13.56,75.43,20.97-2.63-6.87-7.96-10.77-10.75-16.74-.87-1.86-.17-4.36-.81-6.33l-11.03-34.1-40.8-124.39c-25.95-3.13-50.96-5.34-76.67-6.92-10.61-.65-20.32-2.3-30.89-1.59l6.65,12.55-14.97,46.74-25.4,79.87c-2,6.28-8.44,10.08-11.95,14.2l69.15,4.35,8.24-26.47c14.31,2.36,27.83,4.36,41.69,7.42,4.12.91,8.04.37,12.3,2.3l6.28,23.19ZM687,683c3.94-.43,7.44,1.96,12.82.77,3.64-1.3-15.96-2.53-12.82-2.77-4.96.37-9.53-2.19-15.15-.53l15.15,2.53ZM551.4,726.91c5.55-3.05,5.88-10.27,4.57-15.16-3.63-13.56-26.61-9.68-23.04-17.15,1.95-4.09,13.93-.32,18.04,1.5,1.89-2.69,3.41-5.18,5.2-8.52-8.33-5.11-18.38-7.13-27.74-4.33-5.98,1.79-10,5.82-10.39,11.3-1.38,19.57,25.55,14.77,23.95,21.9-1.24,5.53-14.54,1.65-18.87-.55-2.64,2.42-5.3,4.56-6.55,8.3,9.91,6.5,23.92,8.7,34.82,2.7ZM497.31,714.98c8.93-1.25,13.52-6.81,13.93-14.99.47-9.43-5.6-16.3-15.43-17.01-8.13-.59-16.26.14-25.26.11l.13,46.02c5.12.47,9.45.35,14.23-.09.89-4.51-.03-8.49.19-13.08,3.88-.92,8.03-.37,12.2-.95ZM426.06,721.67c1.53,1.67,7.36,1.25,9.14-.18l8.36-16.62,1.08,25.17c5,.24,9.33.32,13.95-.47l-.55-45.52c-6.12-.16-11.68-.16-17.54.54l-10.48,20.23-10.33-18.81-17.37,1.13.23,45.83c4.82.12,9.62.09,14.1-.72l.26-25.77c4.49,4.42,5,10.67,9.13,15.18ZM588.23,731.65l.33-35.05c4.27-.57,8,.28,12.35.19.26-3.69.37-6.98-.14-10.61l-39.03-2.41c-.53,3.56-.57,7.02-.11,10.66l12.13,1.17.13,34.93c4.96.56,9.3,1.18,14.34,1.11ZM640.84,717.92c.7-4.34.7-7.36-.06-10.42-5.31-1.02-11.53-.85-16.36-2.31-1.53-.5-1.2-6.26.42-6.12l20.01,1.7c.66-3.56.9-6.96.11-10.5l-36.15-3.56-.5,46.53,37.09,3.83c.33-3.93.57-7.16.02-10.66l-21.19-2.92c-1.61-.49-1.51-5.81-.11-6.66,5.07-.56,11.32,1.05,16.72,1.09ZM354.97,736c7.13,3.06,14.79,2,21.92-.17,8.56-2.61,13.51-9.9,13.24-18.89l-.87-28.67c-5.26.28-9.75.39-14.25,1.73l.31,30.09c.04,3.74-3.2,5.74-5.84,6.15-2.77.43-6.63-.12-7.1-3.56-1.42-10.24-.6-20.24-1.29-30.64-5.11-.04-9.64.61-14.44,1.84,1.26,12.2-3.43,37.08,8.33,42.13ZM682.67,742.8c5.94,1.29,11.02,2.49,16.22,2.61-2.84-7.6-6.77-13.31-10.16-20.19,5.09-1.48,7.52-4.71,8.37-9.18,4.4-23.21-26.43-21.68-41.34-24.33l-.46,46.62c4.81,1.05,9.03,2.03,14.11,2.05l.76-14.86c.98-.8,4.32-.64,4.89.62l7.61,16.66ZM336.96,724.01c-.04-5.93.23-11.96-2.64-17.33-7.39-13.77-28.54-5.35-41.08-3.11l1.64,46.37c17.6-4.52,41.58-2.91,42.09-25.93ZM741.3,745.59c4.74-8.1,1.21-17.47-6.74-22.04-5.59-3.21-17.11-5.5-14.99-10.05,1.74-3.74,13.87,1.25,17.67,3.8,2.45-2,3.8-4.62,5.78-7.68-8.18-6.72-19.1-9.88-29.57-7.96-6.31,1.15-9.59,6.35-9.28,12.3.33,6.31,3.26,11.19,8.97,13.72l12.45,5.52c1.48.66,2.62,2.33,2.45,3.36-.96,5.95-15.16-.48-18.97-2.83l-8.42,7.2c9.3,7.89,34.3,15.5,40.66,4.65ZM258.89,727.92c.52-1.52-.07-4.09-.04-5.73.04-2.78-.12-6.21-1.96-8.5-4.31-5.39-21.34-4.07-27.78-2.42-.71,3.53,2,5.55,3.62,8.08l15.49,24.18c3.23,5.05,5.68,10.35,10.24,14.03,3.13-5.26.82-23.79.43-29.63ZM772,712.92c-.26,0-.72-.1-.93.03-5.99,3.77-3.56,4.86-4.17,12.07-1.73,8.93-.35,18.61-.72,27.75-.09,2.1.4,4.12.15,6.22,2.47-2.5,3.52-4.77,4.86-6.98,3-4.96,7.06-9.41,8.93-14.92.56-.08.58-.75.9-1.04.59-.53.86-1.19.88-1.99,1.8-1.17,13.48-19.51,12.83-21.43-1.49-4.42-22.98-2.82-22.74.29Z"/><path class="cls-5" d="M640.92,183.85c.9,1.22,1.31,2.68,1.87,4.08-.43.03-1.24.55-.88,1.04-2.32.19-4.19,3.1-5.78,4.8,4.42,1.34,7.76,2.22,12.29,2.96,52,8.42,102.91,19.93,152.84,36.57,14.04,4.68,22.98,7.04,36.5,13.01-.95,18.05-2.34,37.99-4.66,55.67l-3.96,30.23c-8.58,65.48-25.18,130.06-50.13,190.78l-4.92-12.02c-31.93-6.68-63.2-10.42-95.69-12.36,2.64-12.66-1.62-11.1-3.38-20.05,3.24-.8,6.74-.59,9.63-.87,3.74-3.83-1.31-7.5-1.35-10.55l-.43-38.13-.09-57.07c0-2.2,2.62-1.86,3.42-2.8,1.3-1.51,1.45-6.62-.2-7.88-12.91-4.12-28.21-4.2-41.38-8.45-4.18-1.35-5.63,2.83-18.63-6.38-5.79.3-12.44,3.05-18,1.29-7.86-2.48-16.13-3.19-24.8-4.83l-41.33-7.85-70.99,12.88-48.33,10.77,117.46-21.38c2.41-.44,4.82.58,6.67.91-.1.46-.13.94-.06,1.41-.77-.14-1.56-.18-2.34-.05-1.65-2.69-4.02.09-6.23.54l-29.09,5.89-139.45,25.2-41.45,7.13c-.82-.2-1.63-.57-2.08-1.31,13.01-1.79,25.87-4.24,39.38-6.9l50.25-9.89c-6.88-1.58-12,.82-17.82,1.88l-74.89,13.65c-1.03.19-1.59.94-1.91,1.26-.94.44-1.95.9-3,1s-2.3-.08-3.35.33c-3.25,1.26,1.89,11.9,1.77,8.96,1.06,25.3.59,50.15.36,75.47-1.04.95-2.42,1.05-2.9,1.59-.4.44-1.83,8.42,1.68,10.65,2.04,1.29,4.14,1.84,6.4,1.42.3-.06.63.06.94.02.89,4.65-1.55,9.79,2.65,13.53,1.61,1.43,4.39,2.53,6.72,1.21,2.69-1.53,3.39-4.48,4.5-7.05,7.31,5.89,25,6.43,26.49,10.85l-51.49,3.64c-3,.21-6.32,1.61-8.84,1.45-4.72-.3-8.53,1.05-12.74,1.2l-9.83.34-53.25,6.39c-.07-.3.17-.72.04-1-.42-.93-1.04-2.68-2.14-3.1,3.96.07,7.84-.65,12.38-2.26-16.08-41.98-27.03-84.52-35.54-128.64s-12.89-84.01-15.4-127.12c62.27-22.37,125.21-39.32,189.55-48.89.49-.07.87-.56,1-1l4.03-.02c1.56.62,5.85-.98,5.68-2.71-.25-2.53-3.3-3.29-4.58-4.32-.54-.43-.87-1.24-1.8-1.12.96-2.14.76-4.55.87-6.85,4.9,2.2,9.93,4.58,14.32,8.21l-5.56,26.52,21.93-17.72c9.05,3.33,15.49,9.27,24.29,11.15l-8.31-23.41c.34-3.46,5.37-6.39,7.84-8.35-.2,1.51,1.56,3.69,3.22,3.68l.08,2.07c-1.41.94-4.03,1.9-4.8,3.87-.71,1.83,2.49,2.05,3.82,1.92,13.54-1.37,26.46-1.97,40.03-2.63,1.65-.08,3.72.13,4.59-1.09.55-.78.38-2.22.46-3.22.03-.33-.09-.67-.09-1,1.85.61,4.24,0,5.91-.72l-7.89,28.1,31.61-21.3,30.58,20.05-8.04-28.74c2.18.21,4.46,1.76,6.65,1.75.03.27-.06.67,0,.9.28,1.18-.05,4.22,1.38,4.92l46.97,2.65c-2.42-6.51-9.35-7.14-15.16-6.81-.28-.42-.71-.02-1-.03-.93-.05-1.85-.08-2.78-.04l-.1-1.64c3.75-3.03,5.35-7.41,6.05-12.12,3.1.72,16.69,13.61,20.5,17.6l-10.83,24.76c9.25-3.46,16.71-7.68,25.12-12.01l22.05,18.48-4.82-27.12c3.51-2.77,7.33-5.83,11.73-5.84ZM476.82,214.83c.15-6.62,2.34-12.9,4.03-19.98-14.21.07-27.78,1.33-42.09,2.8,1.08,8.39,3.98,12.28,4.82,19.22-4.28,1.05-8.53-2.72-12.82-4.59l-18-7.85-26.08,19.18c-5.91,4.35,1.73-13.25-.54-18.77-15.02,1.34-28.94,3.54-43.37,6.79-17.69,3.98-35.36,6.03-51.82,12.18-5.44.63-10.81,2.2-16.14,3.46-1.07.25-2,.65-2.82,1.45-25.4,6.03-50.06,15.07-75.05,24.12l1.31,11.32c5.25,45.54,10.16,97.64,23.77,140.85-.24,7.84,6.86,27.05,9.11,35.07,3.38,12.07,6.1,24.58,11.77,35.82,1.33,8.15,5.4,15.59,8.38,24.45l36.72-3.84c-9.25-13.36-17.66-18.8-23.13-34.56,9.06-7.49,29.02-13.86,38.94-17.98.99-.41,3.91-.62,3.93-2,.17-12.59.25-24.78-.27-37.31l-18.89,5.75c-4.48,1.36-7.95,4.4-11.71,5.56-10.88,3.34-20.7,9.3-30.99,14.16-4.26-8.08-11.81-23.03-13.07-31.81,11.8-7.87,24.92-13.36,37.26-20.22,3.51.06,7.62-2.91,10.07-4.91,2.22-.24,4.78-.28,6.92-1.08,2.41,1.76,6.81.61,8.5-2,.48-.74-1.29-2.78.04-3.47,15.84-8.24,31.95-14.72,48.29-20.64l29.32-8.1c.57-.16,1.23-.46,1.73-.77l2.06-.14,40.75-7.28c1.68-.3,4.36-.3,5.22-1.5,10.67-.18,21.46-1.9,32.66-3.5,2.15-7.24.95-14.6,4.44-20.59,11.11-1.93,21.66-5.15,33.02-9.05,33.79-11.6,69.2-17.14,104.75-10.7,22.63,4.1,43.97,7.46,66.94,9.22,27.27,2.08,53.63,6.21,80.11,10.49,11.51,1.86,22.99,5.52,34.46,8.71,3.96,1.1,7.3,2.84,11.54,3.52,9.36,1.5,17.58,6.13,27.01,8.96,1.7-7.53,2.53-14.7,3.02-22.19.28-4.3-48.05-17.58-53.87-19.26-5.42-1.56-11.14-1.3-16.38-3.56-2.7-1.16-5.41-.71-7.7-1.42-14.49-4.49-29.68-5.59-45.17-8l-61.11-9.52c-15.87-2.47-30.59-6.79-46.63-8.2-21.63-1.9-42.65-1.55-63.94,2.05-15.93,2.7-58.68,16.89-61.94,16.87h-1.26c.02-.34-.08-.69-.03-1.02,2.05-1.14.81-4.02,1.08-6,.04-.32,0-.67,0-1,1.55-.73.82-2.67,1.22-4.01.68-2.26.69-4.68,1.18-6.99.68-.42.78-1.26.81-2,.01-.32.19-.69.13-1,1.3-.8.52-2.71.87-4,.09-.32.06-.67.12-1,.69-.36,1.32-.94,1.43-1.66.13-.87-.2-1.64-.53-2.34-.02-.32.21-.69.14-1l1.87-5.09c24.19-1.24,42.59-13.34,67.74-14.95,5.42-.35,10.22-1.51,15.09-.91.57.15,1.33-.23,1.87,0,3.38,1.44,7.08.6,11.14.88,20.58,1.45,40.39,5,59.99,10.88,7.85,2.36,18.23,3.98,27.13,5.51l9.81,1.69,37.43,3.77,12.48,2.21c9.08,1.61,18.07,3.18,27.48,5.73,28.1,7.59,55.27,15.6,82.55,26.45l2.18-20.73c-5.3-2.79-34.74-12.63-37.12-12.86-.27-.03-.76-.05-1,.07-10.31-4.77-21.6-7.28-32.84-10.85-6.26-1.98-12.14-3.82-18.16-5.01-30.26-13.89-65.09-16.41-99.24-21.74-1.95,4.55,3.19,19.86-1.96,17.99-8.68-5.2-15.74-12.49-24.05-19.4l-30.71,14.52,5.46-19.83c-14.22-1.96-27.87-2.23-41.87-3.06l4.28,19.14c-7.71-1.19-8.24-6.29-13.89-6.43-2.36-3.79-14.19-9.14-18.94-13.97-2.21.97-4.64-.22-6.37.84-11.15,6.86-21.74,13.9-32.87,19.96ZM735.69,371.63c1.16.24,2.34.29,3.51.36.54.03,1.14-.07,1.68.04,14.17,2.98,28.72,4.56,42.83,9.26l8.91,2.97c4.53,1.51,8.63,2.51,13.65,5.29l6.3-31.82c-17.82-8.53-38.85-12.01-58-15.47-10.74-1.94-21.04-4.37-31.57-4.44-.27,0-.78.05-1-.09-1.76-1.2-3.97-.68-6-.87-21.35-3.5-42.69-5.8-64.97-7.83-30.91-2.82-60.97-3.17-91.18.38l48.72,9.1c6.12,1.14,12.08.77,18.42,1.65,18.53,4.43,36.69,8.46,55.63,10.93,8.63,1.12,14.47,6.36,14.25,15.76,13.66,1.71,26.38,2.19,38.82,4.77ZM691.94,442.93v3.07c-.09,33.25,1.41,10.5,3.44,28.08.57,4.98-4.24,10.14-7.37,11.86-.33.18-1.03.62-.98,1.07l.54,4.96c.06.53-.41,1.39.05,1.97.5.62,1.66.53,2.4.61.62.06,1.29.27,1.89.34l8.25.97c.9.11,1.85.01,2.76.1,22.83,2.31,45.86,4.89,68.99,9.86,5.93-13.86,9.76-27.93,14.02-41.83,2.99-9.75,7.22-19.1,9.76-30.84-12.95-4.98-27.04-8.87-40.81-10.27-13.62-4.12-28.21-5.16-42.93-7.06-2.16-.28-3.21.95-5.38-.08-4.22-2.01-9.52-1.44-14.69-1.73l.05,28.92Z"/><path class="cls-3" d="M382.13,188.96c-3.41,2.57-13.49,1.29-18.58,5.48,6.39,4.65,10.58-1.18,17.49,1.55l-4.03.02c-.49,0-.9.58-1,1-64.33,9.56-127.28,26.52-189.55,48.89,2.5,43.11,7.28,85.07,15.4,127.12,8.51,44.12,19.46,86.66,35.54,128.64-4.55,1.61-8.42,2.33-12.38,2.26-1.28-.5-2.58-.98-2.99-2.96-1.07-5.08-3.27-9.11-4.91-14.24-17.28-54.21-29-109.54-35.51-166.07l-4.34-37.7-1-10.94-1.01-13.97c-.5-6.96-.26-13.51.09-20.41l43.71-14.38,8.19-2.81,13.9-4.01c9.64-2.78,18.9-5.58,28.48-7.73l16.36-3.68,25.75-5.21,16.56-3.51c2.59-.55,4.48-1.14,6.72-1.28,6.05-.38,12.18-1.52,18-2.89,1.81.02,4.27.34,6-.11,10.65-2.79,17.96-.91,20-4l1.32-.17c.93-.12,1.26.69,1.8,1.12Z"/><path class="cls-6" d="M387.18,767.94c35.19,34.67,80.21,64.25,124.88,85.09l-.2,19.98c-5.42-2.39-10.78-4.61-16.45-7.51-39.8-20.33-71.58-41.24-105.62-70.23-8.02-6.83-15-14.2-22.64-21.45-2.73-2.6-7.19.08-10.26.81-21.12,5.02-40.86,11.61-60.99,19.07-5.77-.44-30.52-10.24-29.39-14.83l27.51-5.83c-.02.46-.06,1.05.24,1.27.52.37,1.7.88,2.73.76l29.02-3.32c10.14-1.16,19.8-1.69,29.85-2.26l14.16-.81c6.06-.35,11.54-.85,17.14-.72Z"/><path class="cls-3" d="M730.86,774.14c-.09.62-.13,1.43-.52,1.75-.71.6-1.94,1.01-3.13.79-20.64-3.84-44.02-5.64-65.22-6.93-6.2-.38-12.04-2.44-18.24-.04,4.89,1.89,9.01,3.23,13.25,4.27l-13.37,12.58c-18.78,17.67-47.78,39.6-69.65,53.26-19.44,12.13-41.69,25.1-62.12,33.2l.2-19.98c45.09-21.16,86.5-49.22,124.19-83.43-6.41-2.14-12.98-2.74-19.18-2.38-1.42-1.53-21.58-2.62-24.1-2.02-2.18.52-3.79-1.02-5.14-1.11,2.15-2.3,5.89-.67,9.05-.87,14.05-.91,30.14,4.16,47.28,1.8,1.49-.25,1.3-5.24-.15-5.71-5.62-2.04-12.26-2.11-17.96-2.55-8.88-.68-16.99-2.54-25.74-1.7-.48.05-.9-2.28-.44-2.06,4.34,1.78,9.16.51,14.18,1.09,5.39.63,10.43,1.01,15.86,1.25,24.42,1.09,47.79,4.98,71.39,11.12l29.55,7.69Z"/><path class="cls-1" d="M716,201.02c3.49.29,6.92,1.39,10.92,1.17s7.74,2.24,11.08,2.81c-1.48.23-3.09-.54-5.07.44,1.43,1.16,3.08.34,5.07-.44,4.58.78,9.09,2.39,14.21,2.94l2.08.22c.68.07,1.02.35.4,1.22-1.67-.04-5.04-1.54-7.75-.94l24.7,6.8,24.33,6.76c2.9.8,5.32,2.62,8.06,1.76.26-.08.73-.03,1,.03-1.4,2.42,14.05,5.11,14.96,5.2,3.81.39,7.35,1.9,11,3,.34,1.37,1.66,2.07,3,2.09h1c3.38,2.26,7.43,4.06,11.73,5.18,1.34,5.63-.2,11.05-.54,16.63l-.87,14.04-1.73,19.18c-.7,7.78-1.31,15.05-2.28,22.85l-4.58,37.03-2.11,13.59c-1.2,7.71-4.85,27.93-7.14,34.05-.7,1.86-4.53,3.95-6.13,4.2-1.95-1.02-1.7-4.14-1.37-5.87l6.48-33.39,4.24-29.65c2.59-18.13,5.13-35.53,6.62-53.66.44-5.35,3.98-29.92.99-32.63-4.9-4.43-11.48-5.01-17.79-7.33-43.03-15.81-86.66-27.1-131.61-36.06-13.34-2.66-25.65-5.1-39.05-7.04-3.71-.54-7.41-.31-10.46-1.83-2.11-6.31,33.24.82,37.6,1.45,14.73,2.13,26.12,5.11,39,6.18ZM741.49,206.73c-.41-1.2-1.47-.8-1.95-.71-.71.13-.61.91,0,.97.53.05,2.12.24,1.95-.26ZM745.31,206.91c-2.57-.14-2.87,1.07-.55,1.23,1.15-.13,1.59-.66.55-1.23Z"/><path class="cls-3" d="M641.9,188.96c9.28-.76,18.66,3.21,21.1,1.04l3.17,1.81,40.87,6.66c3.16.52,6.32,1.38,8.95,2.55-12.88-1.07-24.27-4.05-39-6.18-4.36-.63-39.71-7.76-37.6-1.45,3.05,1.52,6.75,1.29,10.46,1.83,13.39,1.94,25.7,4.38,39.05,7.04,44.95,8.97,88.58,20.25,131.61,36.06,6.31,2.32,12.9,2.9,17.79,7.33,3,2.71-.55,27.29-.99,32.63-1.49,18.13-4.02,35.53-6.62,53.66l-4.24,29.65-6.48,33.39c-.33,1.72-.59,4.85,1.37,5.87,1.6-.26,5.44-2.35,6.13-4.2,2.29-6.12,5.95-26.34,7.14-34.05l2.11-13.59,4.58-37.03c.96-7.8,1.57-15.07,2.28-22.85l1.73-19.18.87-14.04c.34-5.58,1.88-11,.54-16.63-4.3-1.13-8.35-2.92-11.73-5.17,4.48,1.12,9.21,2.22,13,4.9v17c0,1.58-1.32,17.47-1.06,16.86-1.93,4.45-.05,8.85-.85,12.92-.68,3.45-.51,6.6-.98,10.01l-2.73,19.77c-1.6,11.56-3.65,22.7-4.63,34.28l-.64,7.57c.11-1.26-4.37,25.23-4.25,24.66l-10.63,49.23c-.36,1.65-.59,3.03-1.02,4.56l-4.61,16.12-2.78,12c-1.13,4.87-2.79,9.68-4.66,14.3-2.04,5.04-2,10.75-4.5,15.48-2.23,4.24-7.12,21.5-8.64,25.54l-2.73,7.23c-1.56,4.13-3.93,7.24-4.13,11.91-.08,1.83-2.68,3.75-2.95,5.53-1.68,2.57-8.64-24.51-7.2-20.99,24.95-60.72,41.55-125.3,50.13-190.78l3.96-30.23c2.32-17.69,3.72-37.62,4.66-55.67-13.52-5.97-22.46-8.33-36.5-13.01-49.93-16.64-100.84-28.14-152.84-36.57-4.53-.73-7.86-1.61-12.29-2.96,1.59-1.69,3.46-4.6,5.78-4.8Z"/><path class="cls-5" d="M762.01,776.8c-.17,1.71-.68,3.48-2.31,4.28-9.58-2.27-19.3-4.46-28.85-6.94l-29.55-7.69c-23.59-6.14-46.97-10.03-71.39-11.12-5.43-.24-10.47-.62-15.86-1.25-5.02-.59-9.84.69-14.18-1.09-.96-.4-2.78-.12-3.82-.06-3.01.2-6.81-.62-13.22-.81-43.1-1.26-86.1-2.12-129.72-.78-9.3.29-17.64,1.29-26.13,1.49l-12.99.32c-4.79.12-9.21.66-14.01,1.04l-11.08.89c-35.16,2.82-61.9,7.86-94.9,17.92l-27.51,5.83c.19-.77,1.25-2.44.12-3.4-1.42-1.21-3.38-.57-4.63-.61,97.26-26.62,200.76-31.89,302.1-27.46,67.1,2.94,134.32,10.16,197.91,29.41Z"/><path class="cls-6" d="M640.92,183.85c-4.4.01-8.22,3.08-11.73,5.84l4.82,27.12-22.05-18.48c-8.41,4.33-15.87,8.55-25.12,12.01l10.83-24.76c-3.81-4-17.4-16.89-20.5-17.6-1.57-.36-2.38-1.39-2.17-2.97,4.12,1.08,8.45.36,13.07,1.04l13.92,2.04c1.45.21,2.72-.07,3.56-1.01.41-.46.26-1.35.46-2.07,1.63-5.98,5.61-11.02,7.87-17.21.97-2.66,1.75-5.49,5.13-5.99.14,4.47,5.08,27.17,6.31,28.37.96.94,2.85-.4,3.88.13,2.41,1.24,4.03,1.5,6.85,1.84l18.11,2.15c-5.86,5.31-8.08,4.41-13.23,9.55Z"/><path class="cls-6" d="M435.69,177.39c-2.46,1.95-7.5,4.88-7.84,8.35l8.31,23.41c-8.8-1.88-15.24-7.82-24.29-11.15l-21.93,17.72,5.56-26.52c-4.38-3.63-9.41-6-14.32-8.21-3.83-1.72-6.6-4.33-10.31-6.23,3.12-2.73,6.84-1.07,10.12-1.75,18.27-3.82,17.93.41,19-5,1.68-8.45,3.79-16.64,6.88-26.06,5.84,6.33,6.85,16.09,11.93,23.55,3.96,2.33,8.44.87,12.08.67,6.01-.32,11.42.08,16.95-2.52,2,3.02-11.15,13.03-12.16,13.76Z"/><path class="cls-6" d="M730.86,774.14c9.55,2.48,19.27,4.67,28.85,6.94-3.45,6.45-26.54,12.48-34.29,13.7-17.39-6.16-33.92-12.34-51.65-16.7l-16.77-4.12c-4.25-1.04-8.36-2.38-13.25-4.27,6.21-2.39,12.04-.33,18.24.04,21.2,1.3,44.58,3.09,65.22,6.93,1.19.22,2.42-.19,3.13-.79.38-.32.43-1.13.52-1.75Z"/><path class="cls-3" d="M471,181.02c4.09-.36,8.08.2,12.09.98-.08,1,.1,2.44-.46,3.22-.87,1.22-2.94,1.01-4.59,1.09-13.58.66-26.5,1.27-40.03,2.63-1.32.13-4.52-.09-3.82-1.92.76-1.98,3.39-2.93,4.8-3.87,4.21-2.82,22.35.5,30.01-2.14.58-.2,1.38.07,2,.02Z"/><path class="cls-3" d="M561,181.1c.29,0,.77-.12,1,.02,2.69,1.82,6.13.72,9.22.62.93-.03,1.85,0,2.78.04l1,.03c5.82-.33,12.74.3,15.16,6.81l-46.97-2.65c-1.43-.7-1.1-3.75-1.38-4.92l19.19.06Z"/><path class="cls-3" d="M754.7,209.38c6.35.16,4.77.75,12.19,2.91l30.87,8.99c2.38.69,4.9.73,6.29,2.48-2.74.86-5.17-.96-8.06-1.76l-24.33-6.76-24.7-6.8c2.71-.6,6.09.9,7.75.94Z"/><path class="cls-4" d="M226,665c-.36.12-1-.34-1-1.1v-69.9h1v71Z"/><path class="cls-2" d="M226,594h-1l.05-60.24c1.93,19.48.95,39.93.95,60.24Z"/><path class="cls-4" d="M557,149l-30.96-.09c-1.29,0-1.77-2.13-2.04-2.91,4.83,4.57,22.31.01,33,3Z"/><path class="cls-1" d="M469,181c-7.65,2.64-25.79-.67-30.01,2.14l-.08-2.07,30.09-.07Z"/><path class="cls-3" d="M820,229c-.9-.09-16.35-2.78-14.96-5.2,4.01.97,7.86,2.43,12.42,2.71,1.58.1,2.89,1.25,2.54,2.49Z"/><path class="cls-4" d="M606,165c-.19.72-.05,1.61-.46,2.07-.84.95-2.11,1.23-3.56,1.01l-13.92-2.04c-4.62-.68-8.95.04-13.07-1.04.15-1.15,1.55-1.47,3.02-1.05,3.12.89,14.2,1.4,20.72,2.45,3,.48,5.31.94,7.26-1.4Z"/><path class="cls-1" d="M561,181.1l-19.19-.06c-.06-.24.03-.63,0-.9l18.16-.1c.73,0,1.18.6,1.03,1.05Z"/><path class="cls-1" d="M848,256v-17c.5.35,1.07.78,1.06,1.93l-.04,13.12c0,1.04-.24,2.02-1.02,1.95Z"/><path class="cls-4" d="M487,149c-5.08.04-10.29-.39-15.82.24-2.85.33-6.3,2.13-8.18-.24,1.83.32,22.78-2.78,24,0Z"/><path class="cls-1" d="M381.03,195.98c-6.91-2.73-11.09,3.1-17.49-1.55,5.09-4.19,15.17-2.91,18.58-5.48,1.28,1.02,4.33,1.78,4.58,4.32.17,1.73-4.11,3.33-5.68,2.71Z"/><path class="cls-1" d="M379,188c-2.04,3.09-9.35,1.21-20,4,.26-1.87,2.08-1.79,3.98-2.03l16.02-1.97Z"/><path class="cls-1" d="M483,181c0,.33.12.67.09,1-4.01-.79-8.01-1.34-12.09-.98,3.41-2.12,8.3-1.23,12-.02Z"/><path class="cls-4" d="M381,173c-.83-3.56,16.99-1.32,19-5-1.07,5.41-.73,1.18-19,5Z"/><path class="cls-4" d="M227.1,508.02c-3.05,2.49-12.49,2.48-15.1,2.98l15.14-3.98c.13.28-.11.7-.04,1Z"/><path class="cls-1" d="M571.12,180.09l.1,1.64c-3.09.1-6.53,1.2-9.22-.62,3.08.06,6.13-.26,9.12-1.02Z"/><path class="cls-1" d="M663,190c-2.43,2.18-11.82-1.8-21.1-1.04-.36-.49.44-1.01.88-1.04,6.81-.41,13.44,1.51,20.22,2.08Z"/><path class="cls-1" d="M353,192.11c-5.82,1.37-11.95,2.51-18,2.89,5.57-2.22,11.99-2.94,18-2.89Z"/><path class="cls-3" d="M834,234.09c-1.34-.02-2.66-.72-3-2.09,1.2.36,2.34,1.01,3,2.09Z"/><path class="cls-5" d="M720.16,670.5l-6.28-23.19c-4.26-1.94-8.18-1.4-12.3-2.3-13.86-3.06-27.38-5.06-41.69-7.42l-8.24,26.47-69.15-4.35c3.51-4.12,9.96-7.92,11.95-14.2l25.4-79.87,14.97-46.74-6.65-12.55c10.57-.71,20.28.94,30.89,1.59,25.71,1.57,50.73,3.79,76.67,6.92l40.8,124.39,11.03,34.1c.64,1.97-.06,4.46.81,6.33,2.79,5.97,8.12,9.87,10.75,16.74-25.69-7.42-50.06-15.12-75.43-20.97-2.6-.6-2.83-2.39-3.52-4.93ZM687.34,552.4l53.92,7.13-12.45-37.22-28.87-2.72-32.89-2.49-26.1-1.1c-2.46,11.44-7.5,20.16-9.52,31.83l49.38,3.67c1.46-2.43,1.95-4.58,3.26-6.12,1.15,2.07,1.32,5.34,3.26,7.01ZM697.77,602.73l-14.6-46.55-14.07,44.28c9.93.86,18.91,2.75,28.67,2.26ZM618.81,587l-.12,1c-3.46,8.15-6.06,16.89-8.93,26.18,41.29,3.89,81.61,7.68,121.57,16.41,5.03,1.1,9.34,1.87,14.38,2.77l21.82,3.93-12.54-38.41c-20.44-4.78-35.79-5.22-55.91-7.94l4.51,15.93c-13.6.8-27.81-1.86-41.43-3.97.54-1.24.85-2.57,1.02-3.91.04-.3.18-.71.11-1,1.57-3.01,2.82-6.73,2.54-10.53l-14.28-1c-6.12-.43-12.28.29-18.45-.67-2.53-.39-15.8-2.56-14.29,1.2ZM647,642.79c-2.45-1.22-6.96-1.58-9.92-1.75-2.33-.14-4.68.02-7.01-.29.37-.7-.71-.75-1.16-.75h-8.92s-1,0-1,0c.07-.8-.9-1.01-1.94-1.01h-8.06c-.33.01-.67,0-1,.01-.27-1.37-4.97-1.83-5.51-.5-2.16,5.87-4.73,11.76-8.61,17.33l52.99,3.3c1.85-5.02,3.62-9.84,4.03-15.45-.06-1.37-3.02-.48-3.91-.9ZM775.6,667.26c-18.36-5.62-36.54-10.05-55.31-14.53,1.25,6.89,3.78,12.04,5.92,18.31l58.4,15.5c-4.25-7.26-5.46-18.2-9.02-19.29Z"/><path class="cls-5" d="M567.7,650.46c-25.58,9.76-73.26,8.05-100.69,6.45-15.74-1.26-30.44-3.74-45.3-8.74l.34-43.97c18.92,10.24,38.73,15.86,59.91,16.8,8.53-.13,37.32,3.58,38.1-7.46.26-3.68-1.6-6.33-5.11-7.7-6.04-2.36-12.31-3.86-18.87-4.94-12.36-2.03-24.12-4.57-36.29-7.57-18.27-4.51-42.29-11.45-43.82-34.4s-2.41-38.53,17.84-50.15c7.32-4.2,15.57-5.9,24.31-6.83,32.69-3.51,89.66-4.59,119.16,11.74l-.05,48.44-16.1-7.36c-24.04-8.27-51.58-8.89-76.79-7.34-3.35.21-5.05,3.72-5.08,6.02-.04,3.3,1.7,6.14,5.08,7.34,25.43,9.04,56.47,8.71,84.98,23.07,8.62,4.34,13.76,12.52,14.78,22.13,1.06,9.98.58,19.54-2.09,29.06-2.07,7.39-6.62,12.46-14.34,15.41ZM544.08,543.51c8.72,1.52,16.42,2.23,24.83.43l-.02-24.95c-28.54-12.62-82.69-12.15-112.97-7.32-11.38,1.82-22.38,5.96-29.96,14.32-5.68,6.27-5.29,15.45-4.64,22.99l59.92-4.44c20.91-3.89,41.46-4.76,62.83-1.03ZM524.47,610.11l51.56,1.02c.1-9.57-4.53-18.13-12.86-22.55-4.18-2.22-9.48-6.08-14.6-6.08-30.6,0-60.52,1.9-91.91,4.76,5.96,4.55,13.12,4.65,20.07,6.02l33.4,6.58c6.16,1.21,11.11,3.99,14.34,10.25ZM571.55,643.51c2.54-2.03,3.57-6.06,3.53-9.13-30.13-1.6-59.07-2.11-89.04-2.01-20.36.07-39.64,0-59.74,1.62-.37,3.77-.39,7.22.06,10.76,7.97,3.06,15.82,4.38,24.23,5.73,23.94,3.83,102.56,7.74,120.97-6.97Z"/><path class="cls-5" d="M243.33,640.44l-.31-111.39-6.22-9.21c27.26-3.55,53.74-6.91,81.12-9l-5.2,11.85.12,96.3c0,4.37,1.96,9.38,5.62,11.27,9.62,4.97,33.25-.42,33.28-15.27l.16-94.56c-3-3.91-5.46-6.94-7.25-11.95,24.11-1.56,47.14-3.26,70.69-2.95l-8.05,11.18-.25,104.14c-.02,8.19-5.89,25.24-10.43,28.84-8.69,6.9-18.19,12.11-29.02,15.82-24.61,8.42-75.21,20.39-99.4,13.03-17.74-5.4-24.81-19.17-24.86-38.08ZM355.78,618c-.46.27-.85.37-.83.84.04.9.69,1.07,1.96.95l46.26-4.48-.47-80.31c-.02-2.91.16-18.88-1.26-19.89-.69-.49-1.78-.95-3.63-.87l-41.98,1.82c-.17,10.9-.47,21.16.11,32.27.1,1.99,4.55.93,5.91.23,2.04-1.05.81-3.5,2.04-6.39,3.11,5.34,6.1,7.23,11.73,5.71-.65,2.83-3.75,3.27-4.16,5.8-.33,2.07,1.57,3.99,1.38,6.16-2.19.23-3.8-1.7-5.86-1.59-2.48.13-3.74,2.74-5.86,3.83-.41-2.67.51-4.37-.15-6.31-.47-1.4-2.63-3.51-5.25-2.58l.2,40.97c0,1.8,5.2.84,6.18-.38,1.15-1.43,1.24-3.65,2.37-5.85,4.16,7.6,4.02,5.33,10.73,6.08-1.29,2.13-3.15,3.15-3.88,4.91-.67,1.62,1.82,4.17,1.3,5.82-2.07.77-4.73-2.29-6.7-.65l-4.76,3.96c-.4-2.47.57-5.12-.53-6.84-.76-1.19-2.45-2.46-4.66-2.99l-.2,19.75ZM247.28,593.77c-.81,3.1.16,6.33.18,9.85l.15,41.25c20.63-5.82,39.92-11.62,60.71-15.66.59-3.8-1.81-6.29-1.71-9.62.68-23.66.05-42.32.17-66.77l-.29-32.45-58.85,5.67-.36,67.72ZM297.59,675.8c14.25-.37,101.22-16.7,103.78-39.92-16.72.8-31.71,3.41-47.74,5.9-33.47,5.19-65.95,12.1-97.99,22.54,6.35,6.11,13.22,8.63,20.29,12.04l21.65-.56Z"/><path class="cls-4" d="M546.23,437.09c5.54,1.17-.16-12.59,5.63-14.96,10.16-4.15,31.93,2.86,33.83-1.77.21-.51-.88-.98-1.76-1.04l-37.66-2.52-.26-65.5c5.4-2.99,10.18-.81,15.4,0l39.9,6.2c.95,1.88.51,4.64-.04,6.58-3.95,14.14-5.95,28.07-6.42,42.72-.12,3.59-4.13,7.1-4.02,10.65.19,6.08-6.81,23.15-10.74,29.57-3.71,6.07-2.23,17.71-6.05,19.85l-28.05.16c-.26-10.63-.09-20.22.25-29.93Z"/><path class="cls-2" d="M423.92,377.92c-1.7,1.42-.86,4.08-.68,6.08.26,2.95.18,7.2,0,10v1c.13,3.24.4,6.53.05,9.77-.29,2.74-.57,5.5-.02,8.23.26,1.25.18,2.51.01,3.77-.14,1.05-.69,2.91.58,3.37l.08,29.79.08,10.15c0,.61,0,1.22,0,1.83l-.05,3.13c-.01.82-.06,1.79.69,1.87-6.85-.8,19.09,1.08,9.33,1.08v1l-54.02-.42-49.06-.63c-4.97-.06-9.94.37-15.22-.31.5-2.55,2.41-1.8,4.09-2.22.1-2.9-1.79-6.29-1.17-9.15,1.07-1.43,6.52-1.66,7.55,0,1.67,2.69-.01,6.56.14,9.07,2.45,1.13,4.73.3,6.81.39,4.12.17,8.25.87,12.85.12.35-3.57.06-6.76-.13-9.85,3.07-.55,2.08,1.64,2.22,8.78-1.52-.37-1.45,1.38.02,1.14,2.25.64,4.61-.39,6.81-.29,4.23.2,8.22,1.01,13.53.14-2.4-5.29-1.2-11.11-.56-16.86,1.44-12.91-14.49-6.01-8.98-24.64-1.81-.51-3.9-1.28-3.89-3.23l.14-32.85c0-1.95,1.03-3.9,2.14-4.46.82-.41,7.83-1.72,8.62-.16.46.92-.68,2.22.87,3.52.53-1.08-.18-2.64,1.02-3.29.15,1.4.21,2.79.21,4.19-.34-.12-1.02.37-1.02,1.06l.22,32.97c1.45-1.33.8-2.94.8-4.03h2l-.04,45.95c0,1.18.29,2.02,1.13,2.06l19.91.99c.98.05,2.01,0,3,0h24c1.34.01,2.78.47,4.17-.6-2.51-.96-3.19-2.01-3.18-4.33l.07-19.99c.03-7.54-7.47-3.21-10.69-13.02-1.21-3.71.51-6.03,1.99-9.58-2.23-.48-4.07-.15-5.2-1.11-.64-.55-1.25-2.03-1.25-3.46l.14-38.49c5.08-1.78,9.81-2.47,15.43-2.58l1.1,43.22.55-48.83c.66.04,2.46-.4,2.57.71.33,3.37.16,6.18.21,8.97Z"/><path class="cls-2" d="M501.1,361.94c-2.06,4.22-.78,9-.84,14.06l-.65,55.73c-.05,4.54-.21,9.22-.78,13.27-2.15,15.39,3.43,13.43.52,21.87-1.4.06-2.87-.1-4.25.19-.69-1.38-.82-3.11-.84-5.08l-.27-29.37c-4.83-1.99-10.56-.88-15.56-2.22-4.09-1.1-3.79-6.18-3.47-9.62.26-2.84,2.63-5.18,5.23-7.49-4.26-1.2-8.16,1.15-11.98-.57s-1.86-40.03-2.1-46.74l30.45-5.27c.87-1.44.51-3.6.64-4.8.6-.54,1.49-1.09,2.12-.86,2.78,1.01,1.31,7.85,1.78,6.89ZM497,365h-1v45h1v-45Z"/><path class="cls-2" d="M539.26,381.92c2.67-.77-1.57,18.2,2.74,15.27l.28,22.64-.02,4.05c-.06,15.06-.59,30.19.64,45.18.18,2.19-1.19,4.65,0,6.85-.89,0-1.91.58-2.92.54.12-2.15.72-4.98-1.81-5.66-.08-.59-.04-1.2-.16-1.79,1.08.04.98-.85.97-1.93l-.16-35.67c-.02-5.45-6.66-2.58-14.38-3.67-4.62-.65-5.79-3.64-5.8-7.7-.01-4.48,1.3-7.18,4.83-10.6l-11.92-.07c-1-3.62-1.45-7.6-1.46-11.5l-.09-35.68c0-2.44,2.1-3.93,4.18-4.3,7.62-1.37,14.86-3.28,22.65-2.95l.85,55.94c3.11-10.04,1.77-19.6,1.56-28.96Z"/><path class="cls-5" d="M426.06,721.67c-4.14-4.51-4.64-10.75-9.13-15.18l-.26,25.77c-4.48.8-9.28.83-14.1.72l-.23-45.83,17.37-1.13,10.33,18.81,10.48-20.23c5.86-.71,11.42-.7,17.54-.54l.55,45.52c-4.62.79-8.95.71-13.95.47l-1.08-25.17-8.36,16.62c-1.78,1.43-7.61,1.85-9.14.18Z"/><path class="cls-4" d="M685.1,364.01c.32.69.15,1.73-.21,2.28-.68,1.05-2.39.7-4.05.67-2.56-.19-2.44,1.77.11,2.67l.13,48.3c0,3.38.35,6.49-1.08,9.1-5.91-1.93-12.33-2.7-18.11-2.83.02-4.17-5.16.22-7.11-6.02-1.48-4.72-1.8-9.91-3.89-14.08,1.43-10.83,1.45-21.6,1.74-33.51-4.32-1.78-8.82-2.89-13.41-2.65-.18-.81-.59-2.88.15-3.47,9.14-2.06,25.4,5.35,37.07,2.49-6.53-3.08-39.11-5.42-40.02-8.03-.41-1.17-.59-2.17-.45-3.22,4.61-.33,9.07,1.39,14,2.24l35.14,6.06Z"/><path class="cls-2" d="M457.59,466.23c-1.07.44-2.32.64-3.2.64-4.92,0-.63-24.24-3.44-31.53-4.46-.54-9.85-1.05-12.18-5.03s-.93-9.39,1.53-12.95l-7.34-1.29-.18-44.22,19.69-4.26c1.26-.68,1.18-3.52,1.58-4.43.64-.09,2.28-.81,2.73-.15l.36,56.86c.02,2.75,1.25,5.22,1.19,8.15l-.75,38.22Z"/><path class="cls-4" d="M497.2,355.91c-.13,1.21.23,3.36-.64,4.8l-30.45,5.27c.24,6.7-1.6,45.07,2.1,46.74s7.72-.63,11.98.57c-2.59,2.3-4.97,4.65-5.23,7.49-.32,3.43-.61,8.52,3.47,9.62,4.99,1.34,10.72.23,15.56,2.22l.27,29.37c.02,1.97.14,3.7.84,5.08-10.09,2.14-20.77.48-31.16.79.19-.56,1.86-.74,1.91-1.33.03-.41-1.75-1.03-1.76-1.71l-.35-39.82c-.03-3.37-1.01-6.47-.99-10.04l.28-51.6c3.74-3.37,8.2-3.07,12.66-3.95,7.29-1.43,14.47-4.12,21.5-3.5Z"/><path class="cls-5" d="M682.67,742.8l-7.61-16.66c-.58-1.26-3.91-1.42-4.89-.62l-.76,14.86c-5.08-.01-9.31-.99-14.11-2.05l.46-46.62c14.91,2.65,45.73,1.12,41.34,24.33-.85,4.47-3.28,7.7-8.37,9.18,3.4,6.88,7.32,12.59,10.16,20.19-5.2-.12-10.28-1.31-16.22-2.61ZM679,715.29c2.25-.41,3.23-2.53,3.43-3.93.22-1.61-.48-3.55-2.11-4.7-2.87-2.03-6.56-2.4-9.83-1.7-.19,3.54-.43,6.29-.02,9.45,2.8.53,5.43,1.46,8.54.89Z"/><path class="cls-4" d="M539.09,348.99l-.09,18.01c-.35.4-.92.88-.94,1.5s.65,1.1.94,1.5l.26,11.92c.2,9.36,1.55,18.92-1.56,28.96l-.85-55.94c-7.79-.33-15.03,1.58-22.65,2.95-2.08.37-4.19,1.86-4.18,4.3l.09,35.68c0,3.9.45,7.88,1.46,11.5l11.92.07c-3.53,3.42-4.84,6.12-4.83,10.6,0,4.06,1.17,7.05,5.8,7.7,7.71,1.09,14.35-1.78,14.38,3.67l.16,35.67c0,1.08.11,1.97-.97,1.93-.65-3.15-.78-6.19-.73-10.73-5.82.03-34.64,2.52-36.66-1.6-1.51-3.07.64-12.5-1.79-11.67.56-4.05.73-8.73.78-13.27l.65-55.73c.06-5.06-1.22-9.83.84-14.06.22-.04.95.4.95,1.19l-.14,71.78c-.61.53-.62,1.42-.94,2.09-1.06,2.24,1.7,3.71,2.18,5.54,1.02,3.91,2.32,6.29,6.27,8.2,12.8,6.19,20.05-6.26,24.01,4.97,3.17-5.58,2.29-12.79,1.66-18.91.08-.62.91-2.33.14-3.05-9.32-.09-18.43.82-27.44-.11-1.29-4.09-1.59-8.81-1.65-13.63l-.6-45.87c-.09-6.66-1.28-12.95.11-19.64,11.22-2.91,22.34-4.84,33.45-5.51Z"/><path class="cls-5" d="M336.96,724.01c-.51,23.03-24.49,21.41-42.09,25.93l-1.64-46.37c12.54-2.23,33.7-10.66,41.08,3.11,2.88,5.36,2.61,11.39,2.64,17.33ZM319.59,712.07c-1.97-2.87-9.5-2.53-11.37.22l.74,21.89c1.61,2.12,6.5.74,8.86-.6,5.76-3.29,4.84-17.03,1.78-21.5Z"/><path class="cls-5" d="M354.97,736c-11.76-5.05-7.07-29.93-8.33-42.13,4.8-1.23,9.33-1.88,14.44-1.84.7,10.4-.13,20.4,1.29,30.64.48,3.45,4.33,3.99,7.1,3.56s5.87-2.41,5.84-6.15l-.31-30.09c4.5-1.34,8.99-1.45,14.25-1.73l.87,28.67c.27,8.99-4.67,16.28-13.24,18.89-7.13,2.17-14.79,3.24-21.92.17Z"/><path class="cls-5" d="M741.3,745.59c-6.36,10.86-31.36,3.24-40.66-4.65l8.42-7.2c3.82,2.35,18.01,8.78,18.97,2.83.17-1.03-.97-2.7-2.45-3.36l-12.45-5.52c-5.71-2.53-8.64-7.42-8.97-13.72-.31-5.96,2.97-11.15,9.28-12.3,10.48-1.92,21.39,1.25,29.57,7.96-1.98,3.06-3.33,5.68-5.78,7.68-3.81-2.55-15.93-7.54-17.67-3.8-2.12,4.55,9.4,6.84,14.99,10.05,7.95,4.56,11.48,13.93,6.74,22.04Z"/><path class="cls-5" d="M640.84,717.92c-5.4-.04-11.65-1.65-16.72-1.09-1.41.85-1.51,6.17.11,6.66l21.19,2.92c.55,3.5.31,6.73-.02,10.66l-37.09-3.83.5-46.53,36.15,3.56c.79,3.54.55,6.94-.11,10.5l-20.01-1.7c-1.62-.14-1.96,5.62-.42,6.12,4.84,1.46,11.06,1.28,16.36,2.31.76,3.06.76,6.08.06,10.42Z"/><path class="cls-5" d="M497.31,714.98c-4.18.58-8.33.03-12.2.95-.22,4.6.7,8.57-.19,13.08-4.78.44-9.11.56-14.23.09l-.13-46.02c8.99.04,17.13-.69,25.26-.11,9.84.71,15.91,7.58,15.43,17.01-.41,8.17-5,13.74-13.93,14.99ZM493.08,704.29c2.6-.84,3.4-3.17,3.57-4.89.19-1.94-.37-4.28-2.55-5.28-2.89-1.32-6.21-.9-9.06-.42.04,4.15-.28,7.23.14,10.81,2.63.27,5.12.67,7.9-.22Z"/><path class="cls-5" d="M551.4,726.91c-10.9,5.99-24.91,3.8-34.82-2.7,1.25-3.74,3.91-5.87,6.55-8.3,4.33,2.19,17.63,6.07,18.87.55,1.6-7.13-25.33-2.34-23.95-21.9.39-5.49,4.41-9.51,10.39-11.3,9.36-2.81,19.4-.78,27.74,4.33-1.79,3.34-3.31,5.84-5.2,8.52-4.1-1.82-16.08-5.59-18.04-1.5-3.57,7.47,19.41,3.59,23.04,17.15,1.31,4.89.98,12.11-4.57,15.16Z"/><path class="cls-4" d="M454.06,363.15c-.41.91-.33,3.75-1.58,4.43l-19.69,4.26.18,44.22,7.34,1.29c-2.46,3.56-3.81,9.05-1.53,12.95s7.71,4.49,12.18,5.03c2.81,7.29-1.48,31.52,3.44,31.53.87,0,2.12-.2,3.2-.64-.01.59.37,1.19.41,1.77-3.01-.43-5.98,0-9,0,2.58-4.24-15.1-.62-18.04-2l.05-32.01-1.04-6.95-.23-49.8c-.01-2.99-2.86-7.49,1.37-9.66,5.44-2.79,17.14-3.57,22.95-4.42Z"/><path class="cls-5" d="M588.23,731.65c-5.05.07-9.39-.55-14.34-1.11l-.13-34.93-12.13-1.17c-.46-3.64-.42-7.1.11-10.66l39.03,2.41c.51,3.64.4,6.92.14,10.61-4.35.09-8.08-.76-12.35-.19l-.33,35.05Z"/><path class="cls-2" d="M392,385c.2,1.49.84,3.14.86,5.05l.33,25.98c.06,5.05,1.36,9.76.72,15.06-.24,1.96-.07,3.96,1.23,4.91.83,2.54.45,5.14.2,7.71-.68,7.14-.39,14.39-.12,21.55-.49.17-.9.6-1.42.73-2.59-.4-1.28-15.35-1.67-21.93-.2-3.47-2.06-4.87-4.66-6.51-5.51-3.46-7.67-10.12-2.96-15.49-2.54-1.55-4.37-2.3-6.33-3.13l-.06-2.8c1.46-2.31,1.46-6-.02-8.3l.98-26.9c3.17-2.44,7.43-2.49,11.9-2.92.58,2.75.72,4.77,1.01,6.98Z"/><path class="cls-4" d="M560.13,483.06c.28-.73-1.16-1.04-2.11-1.04l-16.05-.06c-1.68,0-2.8.93-2.97,2.14-10.96.03-21.77-.23-33.28-.7l-90.74-3.7-48.5-2.2c-3.54-.16-7.42.07-10.94-.22-11.04-.91-21.88-2.18-32.65-.82-.31.04-.63-.08-.94-.02-.03-.24-.16-1.92.32-2.4l32.6.19c3.74.02,7.26,1.4,11.15,1,1.06-.11,41.41,1.16,46.49,1.3l32.09.88,35.77.98,31.53.96c10.88.33,19.58.49,30.51.43l28.82-.15c-3.53,3.58-7.7,1.98-11.11,3.43Z"/><path class="cls-4" d="M421.14,368.24l-.55,48.83-1.1-43.22c-5.62.1-10.35.79-15.43,2.58l-.14,38.49c0,1.43.6,2.92,1.25,3.46,1.13.96,2.96.63,5.2,1.11-1.47,3.55-3.2,5.87-1.99,9.58,3.22,9.82,10.72,5.49,10.69,13.02l-.07,19.99c0,2.32.67,3.37,3.18,4.33-1.39,1.07-2.83.62-4.17.62-3.16-2.06-7.6-1.63-12.31-2.32l-.87-26.67-1.12-13.94c-.4-4.96-2.51-9.42-2.57-14.59l-.4-36.6c-.9-1.93,23.1-4.49,20.4-4.66Z"/><path class="cls-4" d="M434,469l16.94.75,50.03.57c6.34.07,12.27-1.1,18.49.18s12.69.27,18.7.29c2.53.68,1.93,3.51,1.81,5.66l-23.42-.93-33.95-.94-34.05-.95-44.58-1.6-40.89-1.37c-7.46-.25-14.54-1.11-22.12-.63-3.68.23-7.43-.31-10.04-2.08l49.06.63,54.02.42Z"/><path class="cls-4" d="M508.97,345.99c-.2,2.32,2.73,1.64,4.09,2.89l-84.06,15.07-40.76,6.7c-16.22,2.67-31.91,5.28-48.05,8.43l-23.29,4.54c-1.34.26-1.42-2.5-.81-3.25,4.05-.57,8.42.14,11.98-2.05l41.45-7.13,139.45-25.2Z"/><path class="cls-4" d="M679.86,428.66c1.33,1.56,1.24,3.87,1.21,6.33l-.41,31.86c-.03,1.99-5.12,1.42-6.66,1-1.93-.53-3.6-2.43-4.5-5.16l-11.42-34.77c7.21,1.18,14.49.87,21.78.75Z"/><path class="cls-4" d="M367.71,377.71c.23,1.42.33,2.85.29,4.29-.01.59-.27,1.22-.21,1.81-1.2.65-.49,2.21-1.02,3.29-1.54-1.3-.4-2.59-.87-3.52-.79-1.56-7.8-.25-8.62.16-1.11.56-2.13,2.51-2.14,4.46l-.14,32.85c0,1.95,2.07,2.71,3.89,3.23-5.52,18.63,10.42,11.73,8.98,24.64-.64,5.75-1.84,11.57.56,16.86-5.31.87-9.3.06-13.53-.14-2.1-5.42.36-11.36-.33-16.97-.9-7.36.32-14.42-.94-21.48-1.17-6.59-2.03-38.64-1.32-46.48,5.48-1.31,10.54-2.57,15.39-2.99Z"/><path class="cls-2" d="M344.86,386.17l.16,34.85c0,.99,1.28,1.59,1.89,1.11-.7,4.25,1.29,8.84-.61,12.9-3.19-.66-7.53,1.2-10.49-.71-2.27-1.47.04-5.39-.4-7.26-.48-2.02-1.53-3.65-1.52-5.97l.27-33.8c3.6-1.84,7.26-1.14,10.7-1.11Z"/><path class="cls-4" d="M615.92,369.09c-1.37.03-2.25,1.3-2.74,2.86l-5.81,18.39-11.11,34.78c-2.42,7.57-3.82,15.03-7.27,22.28.76,5.88-1.45,10.93-3.02,16.44-1.67,5.84-2.35,11.9-5.91,17.24.63,1.2,2.41,1.01,3.04,1-.46,2.25-.34,5.36-2.66,6.03-1.83.53-5.13,1.59-6.68-.07-3.55-3.82,5.5-18.09,5.89-19.54l4.23-15.77c1.01-3.76,2.73-6.53,3.74-10.32,2.33-8.74,4.84-17.41,8.18-25.74,1.1-2.74,2.28-4.37,2.51-7.63.61-8.62,11.6-34.44,14.15-45.15,3.05,1.26,2.57,3.69,3.46,5.2Z"/><path class="cls-1" d="M781.91,734.06c-.03.8-.29,1.46-.88,1.99-.42.21-.74.59-.9,1.04-1.87,5.52-5.93,9.96-8.93,14.92-1.52.89-3.29,1.1-5.01.76.38-9.13-1.01-18.82.72-27.75,2.59-2.32-.77-6.15,4.17-12.07.21-.13.67-.04.93-.03,2.48.04,5.12-.45,8.09-.04,5.67,16.79,2.1,12.37,1.81,21.18Z"/><path class="cls-4" d="M619.92,349.98c-.57,1.33.62,2.11,1.59,2.09l2.49-.07c-.53,1.45-1.97,2.39-3.09,3.73-2.65,3.15-2.71,7.76.83,9.22,2.25.93,3.95,3.65,7.34,3-.13-1.05-2.2-1.46-1.92-2.3s2.04-1.46,2.84-1.98c3.71-2.38,1.36-8.33-1.07-11.49.41.01.82-.26,1.23-.27,3.98,2.16,2.5,6.17,4.55,10.02,1.63,3.07,1.17,6.01,2.18,8.98-1.12.05-1.83,2.13-1.37,3.56l7.56,23.56c2.7,8.41,6.21,16.1,8.52,24.62,1.55,5.73,4.4,10.86,6.32,16.58.36.96,1.19.99,1.1-.08,3.27,5.96,4.61,12.9,6.46,19.9.65,2.46,3.05,4.31,1.98,7.21l-10.72-25.82-15.71-41.74c-.83.19-1.18,1.52-1.18,2.4-1.9-8.28-5.88-16.26-8.78-24.4,11.33-7.51-12.1,2.18-14.51-14.14-.54-3.67.5-7.32-1.16-10.59-3.26,1.27-3,3.73-4.45,6.35-1.43-3.34-.74-6.39-.68-9.06,3.63,1.3,6.7.99,9.66.74ZM640,395.5c0-.28-.22-.5-.5-.5s-.5.22-.5.5.22.5.5.5.5-.22.5-.5Z"/><path class="cls-2" d="M615.92,369.09c.83,1.4,1.95,2.47,2.33,4.14-2.11,2.37-2.94,5.49-4.07,8.81l-6.65,19.49c-3.14,9.19-6.47,17.93-8.52,27.47.14.67.42,1.53.98,1.04l-13.13,41.78c-2.95,1.19-3.1,5.57-3.52,8.48-.08.6-.12,1.2-.24,1.8-.64,0-2.41.19-3.04-1,3.56-5.35,4.24-11.4,5.91-17.24,1.57-5.5,3.79-10.55,3.02-16.44,3.45-7.25,4.85-14.71,7.27-22.28l11.11-34.78,5.81-18.39c.49-1.56,1.37-2.83,2.74-2.86Z"/><path class="cls-1" d="M258.84,722.19c-.02,1.64.56,4.21.04,5.73-2.16,6.38.48,23.99-2.32,23.17-2.65-.78-12.44-15.61-13.16-21.07-.47-3.52,3.55-7.71,1.52-12.2-.6-1.32.71-3.35,1.27-4.25.64-1.03,2.37-.94,3.78-1.02,4.65-.24,7.25,3.09,7.16,7.58-.01.75.21,1.4.48,1.9.22.42.75.61,1.23.16Z"/><path class="cls-4" d="M393.8,465.99l.2,1.01c-.99,0-2.02.05-3,0,1.17-4.05-6.32-.49-9.62-2.88-1.19-.87-1.66-3.03-1.57-5.07.73-17.19-1.32-25.9-1.62-40.1,1.96.83,3.79,1.58,6.33,3.13-4.72,5.37-2.56,12.03,2.96,15.49,2.6,1.63,4.45,3.03,4.66,6.51.39,6.58-.92,21.53,1.67,21.93Z"/><path class="cls-4" d="M608,347.69c.03.44-.13,1.05-.06,1.45l-61.25-10.95c-1.86-.33-4.26-1.35-6.67-.91l-117.46,21.38,48.33-10.77,70.99-12.88,41.33,7.85c8.67,1.65,16.94,2.36,24.8,4.83Z"/><path class="cls-4" d="M546.62,339.6l61.44,11.35c-1.45,3.65-3.9,4.09-7.49,3.73-8.49-.86-16.5-2.6-24.98-3.91l-32.41-4.99c.23-2.1.47-4.2,1.11-6.22.78-.13,1.56-.1,2.34.05Z"/><path class="cls-3" d="M258.84,722.19c-.48.45-1.01.26-1.23-.16-.26-.5-.49-1.15-.48-1.9.09-4.5-2.51-7.83-7.16-7.58-1.41.07-3.14-.01-3.78,1.02-.56.9-1.86,2.93-1.27,4.25,2.03,4.5-1.98,8.69-1.52,12.2.72,5.47,10.52,20.3,13.16,21.07,2.8.82.15-16.78,2.32-23.17.39,5.84,2.69,24.37-.43,29.63-4.56-3.68-7.01-8.98-10.24-14.03l-15.49-24.18c-1.62-2.52-4.33-4.54-3.62-8.08,6.44-1.65,23.47-2.96,27.78,2.42,1.84,2.3,1.99,5.72,1.96,8.5Z"/><path class="cls-2" d="M639.84,401.08l1.12,4.86c.16.68,0,2.22,1.05,2.09l12.47,38.66c3.02,9.36,8.54,18.13,7.23,28.48l-32.52-96.08c1.1-.08.74-1.69,1.07-2.44l.8.03c2.9,8.14,6.88,16.12,8.78,24.4Z"/><path class="cls-2" d="M650.89,404.09c-4.63-9.25-9.57-26.88-11.67-36.16,4.59-.24,9.08.86,13.41,2.65-.29,11.91-.31,22.68-1.74,33.51Z"/><path class="cls-4" d="M344.96,380.98l.04,1.02c.06,1.39-.15,2.79-.14,4.17-3.44-.03-7.1-.73-10.7,1.11l-.27,33.8c-.02,2.32,1.04,3.95,1.52,5.97.44,1.87-1.87,5.79.4,7.26,2.96,1.91,7.31.05,10.49.71-.14.29.09.73,0,1.04-5.39-.34-10.71,1.56-16.06.49,2.21-3.76.19-8.27-.02-12.69-.56-11.75-.19-22.98-.09-34.7.06-7.5,5.74-6.43,14.82-8.18Z"/><path class="cls-2" d="M322.78,389.01l.45,25.99c-.05-2.66,1.12,27.77,1.92,20.95.05.33.15.75.12,1.08l-1.06,14.24c-2.45-1.49-2.87-4.11-5.01-4.45.02-1.42-.03-3.48-.2-4.83,1.48,2.61,1.48-14.61,0-12l-.2-31.76c-.02-3.06-.36-5.44.2-8.06l3.78-1.17Z"/><path class="cls-4" d="M328,436.96l-.1,2.04c-.05,1.04-.38,2.25.22,3.17s2.13.97,3.23,1.7l8.39,5.56c2.1,1.39,5.2.53,6.54,2.69-.84.44-.82,2.35-3.29,2.09-7.64-.82-15.29.11-23.18-.09-1.94-1.36-.63-5.42-.59-7.29,2.14.34,2.56,2.96,5.01,4.45l1.06-14.24c.91-.03,1.82-.1,2.73-.07Z"/><path class="cls-3" d="M781.91,734.06c.29-8.81,3.86-4.39-1.81-21.18-2.97-.41-5.61.08-8.09.04-.24-3.11,21.25-4.71,22.74-.29.65,1.92-11.03,20.26-12.83,21.43Z"/><path class="cls-5" d="M499.35,466.87c1.15,1.38,3.41,1.67,5.56,1.28,4.02-.73,7.41.28,11.17.62,7.55.68,14.81-.04,21.92.23.12.58.08,1.2.16,1.79-6.01-.02-12.43.99-18.7-.29s-12.15-.11-18.49-.18l-50.03-.57-16.94-.75v-1h15c3.02,0,5.99-.43,9,0,1.91.27,4.02-.08,5.94-.14,10.38-.32,21.07,1.34,31.16-.79,1.39-.29,2.85-.13,4.25-.19Z"/><path class="cls-5" d="M659.02,439.14c.09,1.07-.74,1.04-1.1.08-1.91-5.72-4.77-10.84-6.32-16.58-2.3-8.52-5.82-16.21-8.52-24.62l-7.56-23.56c-.46-1.43.26-3.51,1.37-3.56,7.74,22.58,15.71,45.24,22.12,68.24Z"/><path class="cls-2" d="M546.23,437.09c.17-4.93-.33-9.03-.46-13.07.08-1.95-.28-3.13-.07-4.21l.56-3.02,37.66,2.52c.89.06,1.97.53,1.76,1.04-1.9,4.64-23.67-2.38-33.83,1.77-5.78,2.36-.09,16.12-5.63,14.96Z"/><path class="cls-4" d="M542.89,475.9c-1.18-2.2.18-4.66,0-6.85,7.4,0,14.95-.6,22.69.55,1.69.25,1.63,2.78,1.38,3.76-.19.76-.52,2.5-2.03,2.59-7.62.45-14.9.32-22.05-.05Z"/><path class="cls-4" d="M607.95,409.14l11.18-33.15c1.78-.31,1.73-2.11,3.59-3-.17,6.64-3.4,12.56-5.62,19.21l-12.69,38.07c-1.95-4.16,6.23-18.79,3.53-21.12Z"/><path class="cls-2" d="M347.98,446.04c0,2.36.49,4.94-1.7,6.08-1.34-2.16-4.44-1.3-6.54-2.69l-8.39-5.56c-1.1-.73-2.61-.76-3.23-1.7s-.27-2.13-.22-3.17c5.18.02,10.49-.77,16.13-.27,3.35.3.22,8.48,3.96,7.31Z"/><path class="cls-5" d="M619.13,375.99l-11.18,33.15c-2.72,6.87-5.74,13.81-7.97,20.89-.55.49-.83-.37-.98-1.04,2.05-9.54,5.38-18.28,8.52-27.47l6.65-19.49c1.13-3.32,1.96-6.43,4.07-8.81.19.83,1.55,1.59.89,2.76Z"/><path class="cls-2" d="M544.29,339.56c-.64,2.02-.89,4.12-1.11,6.22-1.82-.28-4.15-.71-5.97-.71,3.01-2.84-18.97,1.7-16.29,2.17l-1.68-.02c-.76,0-1.53-.38-2.56-.11-.56.15-1.46.9-.86,1.79-.88.09-1.89-.18-2.76-.02-1.36-1.25-4.3-.57-4.09-2.89l29.09-5.89c2.2-.45,4.57-3.23,6.23-.54Z"/><path class="cls-5" d="M541.99,397.19c-4.31,2.93-.07-16.04-2.74-15.27l-.26-11.92v-3l.09-18.01c.79-.05,1.76-.34,2.34.02.93.57,1.01,1.69.99,2.96l-.44,45.22Z"/><path class="cls-4" d="M345.84,455.99c.19,3.1.47,6.28.13,9.85-4.6.75-8.72.05-12.85-.12.36-2.56-1.21-7.09,1.62-8.77,3.34-1.98,7.75-.36,11.1-.96Z"/><path class="cls-2" d="M607.94,349.14c.06.22.49.44.68.74.32.5-.42.72-.56,1.07l-61.44-11.35c-.07-.47-.04-.95.06-1.41l61.25,10.95Z"/><path class="cls-4" d="M617.66,484.7c-2.45-2.25-5.71-.57-7.69,1.29-3.42,3.22-3.08,7.47-5.12,12.23-4.07-4.03,1.51-16.67,7.71-16.77,3.41-.05,6.21.54,8.12,3.92,2.15,3.81,4.28,9.69.39,13.49-.71-5.43.85-10.27-3.41-14.17Z"/><path class="cls-5" d="M395.14,436c-1.3-.96-1.46-2.95-1.23-4.91.64-5.3-.66-10.01-.72-15.06l-.33-25.98c-.02-1.91-.67-3.57-.86-5.05,2.35-3.01.68-7.37.82-11.03.75-1.85,2.78-1.04,2.09.81l.23,61.22Z"/><path class="cls-2" d="M685.1,364.01l-35.14-6.06c-4.92-.85-9.39-2.57-14-2.24.05-.4-.37-1.25.2-1.93l46.08,7.97c1.09.19,2.02.21,2.59.88.27.31.29.91.26,1.37Z"/><path class="cls-4" d="M670.93,498.6c.67-.97.7-2.21.77-3.11.09-1.18-1.14-3.3-2.91-2.45-1.9.92-.24,4.07.29,5.46-2.37.27-3.89-.38-4.63-1.6-.88-1.47-.43-3.11.24-4.84.99-2.52,3.13-4.27,5.66-4.16,2.14.09,3.25,2.21,4.13,4.16,1.04-.86.07-2.62.99-2.74,1.77-.21,2.55,5.38.08,8.66-1.14,1.51-3.03,1.04-4.62.62Z"/><path class="cls-4" d="M371.09,466.01c-.84-.04-1.13-.88-1.13-2.06l.04-45.95v-2c2.12,3.63,2.01,8.36,2.01,12.99v25c-.02,4.32.34,8.34-.92,12.01Z"/><path class="cls-4" d="M585.79,498.02c-2.17.61-6.73.98-8.98.03-1.57-1.01-.85-5.98.63-7.13,1.63-1.27,5.34-1.42,7.55-.41,1.89.87,2.97,5.59.8,7.51Z"/><path class="cls-4" d="M334.11,484.94c-.45,2.46-1.77,4.41-3.78,4.79-2.73.52-4.22-1.53-4.88-4.32-.54-2.29-.84-4.49.61-5.82,1.74-1.6,4.45-2.33,6.14-1.48,2.64,1.33,2.38,4.27,1.91,6.83Z"/><path class="cls-2" d="M661.88,424.19c5.78.13,12.2.91,18.11,2.83-.24.44.04,1.16-.13,1.63-7.29.13-14.57.43-21.78-.75-.3-.91-1.22-1.68-.97-2.77.84.2,1.59-.29,1.98-1.02l2.8.06Z"/><path class="cls-5" d="M325.07,388.99l-.07,10.01v36l.15.95c-.8,6.82-1.96-23.61-1.92-20.95l-.45-25.99,2.28-.03Z"/><path class="cls-5" d="M535.09,436.8c-6.98-.8-27.59-1.66-34.12.2.31-.66.33-1.56.94-2.09,1.98,0,3.89-1.48,5.88-1.27,9.01.93,18.13.02,27.44.11.77.71-.06,2.42-.14,3.05Z"/><path class="cls-4" d="M325,435v-36c.51-.19,2-.21,2,.98l.05,33.07c0,.88-.12,1.61-.6,1.91-.36.23-1.03.06-1.45.04Z"/><path class="cls-5" d="M370,382v36h-2v-30c0-1.4-.07-2.79-.21-4.19-.06-.59.2-1.22.21-1.81h2Z"/><path class="cls-5" d="M346.3,436.06c.22.3.54.5.79.76.12.47,0,1.66.81,1.25-.16,2.65.08,5.31.08,7.96-3.74,1.17-.6-7.01-3.96-7.31-5.64-.5-10.95.29-16.13.27l.1-2.04c.71.02,1.55-.55,2.25-.41,5.35,1.08,10.67-.83,16.06-.49Z"/><path class="cls-4" d="M618.06,495.18c-1.95.46-1.75-3.39-3.08-3.71-3.22-.79-3.19,3.47-2.93,5.44-1.04.16-2.42.17-2.68-.64-1.14-3.54.26-7.68,3.45-8.87,2.23-.83,4.26.66,5.25,1.91,1.95,2.48.81,3.98,0,5.87Z"/><path class="cls-4" d="M682.89,470.42c1.67.68,1.43,3.21,1.35,4.12-.24,2.74-8.25,1.76-9.24,1.08-1.1-.76-1.91-4.28-.49-5.08,2.16-1.22,5.86-1.15,8.37-.13Z"/><path class="cls-4" d="M392.82,373.97c-.15,3.66,1.53,8.02-.82,11.03-.29-2.21-.43-4.24-1.01-6.98-4.48.43-8.73.48-11.9,2.92-3.82-3.34,12.12-6.39,13.73-6.97Z"/><path class="cls-5" d="M346.9,422.13c-.6.49-1.88-.12-1.89-1.11l-.16-34.85c0-1.38.2-2.78.14-4.17h1l.24,29.91c.03,3.69,1.22,6.86.67,10.22Z"/><path class="cls-2" d="M661.6,483.05c3.88,5.51-12.01,3.27-13.67,2.71,1.38-2.98,12.86-3.86,13.67-2.71Z"/><path class="cls-4" d="M395.22,465.27c-.27-7.16-.56-14.41.12-21.55.66-.65,1.61.44,1.62,1.32l.11,18.05c0,.86-.28,1.44-.62,1.88-.24.31-.81.16-1.23.31Z"/><path class="cls-2" d="M560.13,483.06c-1.11.47-2.37.99-4.07.99l-17.06.05c.16-1.22,1.29-2.15,2.97-2.14l16.05.06c.95,0,2.38.31,2.11,1.04Z"/><path class="cls-2" d="M618.06,495.18c-1.28,2.99-3.51,2.57-6.01,1.72-.26-1.97-.29-6.23,2.93-5.44,1.34.33,1.14,4.17,3.08,3.71Z"/><path class="cls-4" d="M537.21,345.07c-.72.46-16.97,4.26-16.29,2.17-2.68-.46,19.3-5,16.29-2.17Z"/><path class="cls-4" d="M661.72,498.17c-2.11-3.53-1.61-8.16,1.8-11.24.26,3.74-.51,7.1-1.8,11.24Z"/><path class="cls-4" d="M535.95,489.46c-1.62,1.42-2.88-.47-4.13-.05-1.35.45-1.31,2.92-2.43,3.46-1.39.68-2.84.26-3.16-.33-.29-.54-.25-1.75.51-2.71,2.03-2.56,6.57-3.3,9.21-.37Z"/><path class="cls-4" d="M325.07,388.99l-2.28.03-3.78,1.17c.51-2.39.38-4.3,3.95-5.39.85-.26,1.59.92,2.27,1.44,1.34,1-.08,1.95-.16,2.76Z"/><path class="cls-4" d="M319,442c-1.62-3.56-1.78-8.46,0-12,1.48-2.61,1.48,14.61,0,12Z"/><path class="cls-4" d="M665.26,485.26c-2.68-2.74-3.17-6-2.2-9.62,3.12,2.05,3.9,5.61,2.2,9.62Z"/><path class="cls-4" d="M687,681v2l-15.15-2.53c5.62-1.66,10.19.91,15.15.53Z"/><path class="cls-2" d="M326,377c.45.74,1.26,1.11,2.08,1.31-3.56,2.19-7.93,1.48-11.98,2.05.64-.78,1.03-1.77,1.91-2.36,1.05-.1,2.06-.56,3-1,1.37,1.73,3.27.24,5,0Z"/><path class="cls-2" d="M687,683v-2c-3.14.24,16.46,1.46,12.82,2.77-5.37,1.19-8.88-1.2-12.82-.77Z"/><path class="cls-4" d="M541.59,489.46c1.82,1.76,2.1,4.58,1.27,6.82-2.88,7.75.38-6.7-4.95-6.78,1.66-1.36,3.04-.67,3.69-.05Z"/><path class="cls-5" d="M670.93,498.6c-.95-.25-1.5.06-1.85-.09-.53-1.4-2.19-4.54-.29-5.46,1.77-.85,2.99,1.27,2.91,2.45-.07.89-.1,2.14-.77,3.11Z"/><path class="cls-5" d="M630.16,351.91c-.41.02-.82.29-1.23.27l-4.93-.18-2.49.07c-.96.03-2.16-.76-1.59-2.09,4.16-.35,6.91.11,10.24,1.92Z"/><path class="cls-4" d="M545.69,419.81c-.2,1.08.15,2.26.07,4.21-1.17-.12-2.34-.17-3.51-.14l.02-4.05c1.11-.43,2.31-.45,3.42-.02Z"/><path class="cls-4" d="M378.13,416.15c-3.18-2.3-.1-5.99-.02-8.3,1.48,2.3,1.48,5.99.02,8.3Z"/><path class="cls-3" d="M766.19,752.77c1.72.35,3.49.13,5.01-.76-1.34,2.21-2.4,4.48-4.86,6.98.26-2.11-.23-4.12-.15-6.22Z"/><path class="cls-4" d="M423.27,413c-.56-2.74-.27-5.49.02-8.23,3.06.99,2.47,6.66-.02,8.23Z"/><path class="cls-4" d="M586.86,471.81c-.89,2.84-.74,7.03-3.52,8.48.41-2.91.57-7.29,3.52-8.48Z"/><path class="cls-3" d="M766.91,725.02c.61-7.21-1.82-8.3,4.17-12.07-4.93,5.92-1.58,9.74-4.17,12.07Z"/><path class="cls-2" d="M370,378v4h-2c.03-1.44-.07-2.87-.29-4.29.19-.29.18-1.45.77-1.61s1.73,2.18,1.53,1.89Z"/><path class="cls-4" d="M424.02,460.09l-.08-10.15c1.81,2.81,1.69,7.27.08,10.15Z"/><path class="cls-4" d="M370,387v-9c1.68,2.4,1.78,6.66,0,9Z"/><path class="cls-4" d="M630.26,376.65c-.33.75.03,2.37-1.07,2.44-1.44-.65-1.64-3.46-.74-4.08.32-.22,1.15,0,1.48.36.26.29.17.65.34,1.28Z"/><path class="cls-4" d="M423.87,420.14c-1.27-.46-.72-2.32-.58-3.37,1.06-.54,1.92.65,1.74,1.7-.1.62-.62,1.21-1.16,1.67Z"/><path class="cls-4" d="M423.24,384c-.18-2-1.02-4.66.68-6.08.04,2,.74,4.55-.68,6.08Z"/><path class="cls-4" d="M519.24,347.22c.75.96-.41,1.47-.99,1.66-.83.28-1.71-.06-2.43.02-.6-.89.3-1.65.86-1.79,1.02-.27,1.8.1,2.56.11Z"/><path class="cls-4" d="M423.98,465.05l.05-3.13c.93-.33.99,1.01,1.01,1.59s-.12,1.92-1.05,1.54Z"/><path class="cls-4" d="M642.01,408.03c-1.04.13-.89-1.41-1.05-2.09.98-.05.83,1.42,1.05,2.09Z"/><path class="cls-4" d="M659.08,424.13c-.39.73-1.14,1.22-1.98,1.02-.34-.69.04-.89.54-.94.59-.06,1.04-.15,1.43-.08Z"/><path class="cls-2" d="M347.9,438.08c-.8.4-.69-.79-.81-1.25.28.3.83.8.81,1.25Z"/><path class="cls-3" d="M780.13,737.09c.15-.45.47-.82.9-1.04-.32.28-.34.96-.9,1.04Z"/><circle class="cls-4" cx="528.5" cy="494.5" r=".5"/><path class="cls-2" d="M346,382h-1l-.04-1.02c.72-.14,1.04.39,1.04,1.02Z"/><path class="cls-4" d="M423.24,395v-1c.13.28-.01.73,0,1Z"/><path class="cls-4" d="M348.09,465.92c-1.48.24-1.54-1.51-.02-1.14l.02,1.14Z"/><path class="cls-4" d="M443.58,216.87c3.83-.94-.83-4.34.82-9.55,5.86-1.29,11.55.28,17.37.33,3.11.03,6.49-1.81,9.15.87,4.76,4.79,1.27,9,3.24,11.47l-.19,2.82c-4.41,1.08-5.7,12-4.6,17.19.07.31-.17.68-.14,1-1.92.19-1.22,2.68-.9,4-.06.33-.04.68-.12,1-1.13-.24-1.16.96-1.2,1.53-.05.96.17,1.69.33,2.47.06.31-.11.68-.13,1-.58-.11-1.16.26-1.78.99-.33.39.25.92.97,1.01-.49,2.32-.5,4.73-1.18,6.99-1.82.36-1.21,2.6-1.22,4.01,0,.33.04.68,0,1-1.88,1.27-.74,4.02-1.08,6-.06.33.05.68.03,1.01-4.87,6.25-7.75,12.8-6.63,22.06,1.78,14.86-1.38,10.3-14.25,25.08-5.7,6.55-18.23,7.89-19.07,9.05s-3.55,1.2-5.22,1.5l-40.75,7.28c.52-.86-.64-1.2-1.33-.86-.35.17-.39.78-.73,1-.5.32-1.16.62-1.73.77l-1.85-7.24c-1.4-5.45-33.01-7.26-36.33-2.17-1.09,1.66-1.58,3.65-.02,5.35,8.84,9.67,8.95,3.87,8.88,12.16-16.34,5.92-32.45,12.4-48.29,20.64-1.34.69.44,2.73-.04,3.47-1.69,2.61-6.09,3.76-8.5,2,1.3-.51,2.52-1.97,4.74-3.45-3.84-3.61-8.4-4.95-12.58-7.98-3.24-2.34-6.8-5.92-11.43-5.49-1.91.18-.72,4.46.31,5.6,6.65,7.33,12.71,7.92,12.03,12.4-2.45,2-6.57,4.97-10.07,4.91-3.23-.05-6.2,2.02-10.11,2.88-3.07.68-3.63-3.13-5.15-4.62-4.57-4.5-6.9-9.7-5.18-15.55-.01-3.01-3.72-5.43-3.42-8.62.33-3.56,4.42-5.66,5.58-8.62-3.89-.39-7.75,2.33-11.42,1.17-3.12-.98-3.93-5.46-6.51-6.58-3.08-1.34-3.78-2.95-4.8-6.34-2.48-8.25-4.2-16.46-3.08-24.78,1.55.51,5.57-8.4,9.9-9.45,3.37-.82,6.78,1.95,10.16,1.58-1.34-3.38-3.93-5.68-4.77-8.91,1.47-2.53,3.86-4.16,4.94-6.99-2.8-1.69-6.01.62-8.76.44-2.04-.13-5.84-3.54-5.7-5.66.21-3.43-2.38-5.97-3.23-9.42-1.4-5.67,12.14-13.99,11.52-13.45,6.58-5.67,15.81-6.67,20.08-10.15l6.93-5.65c-.24-1.94-1.93-3.95-.89-4.97l5.81-5.69c.82-.8,1.75-1.2,2.82-1.45-4.46,4.26,16.84-3.72,16.14-3.46,16.46-6.15,34.13-8.2,51.82-12.18,14.43-3.25,28.36-5.45,43.37-6.79,2.27,5.52-5.36,23.11.54,18.77l26.08-19.18,18,7.85c4.29,1.87,8.54,5.65,12.82,4.59ZM426.76,240.35c2.44-1.58,5.82,1.8,8.63.74-3.46-12.49-.69-6.26,4.91-15.47-11.6.01-9.21,2.5-16.24-5.5-6.12,10.34-1.75,7.68-16.03,12.46,3,1.31,7.19,2.01,9.15,5.46,1.33,2.33-.33,5.48.8,8.01l8.78-5.7ZM351.37,250.81l8.85,1.7c-.19-2.51-3.49-5.53-2.87-8.62s4.42-5.14,7.25-8.44c-3.54.97-7.36.79-11.45,1.4l-6.31-6.27c-5.64,10.54-.21,7.56-14.78,12.91,3.12,1.97,7.39,2.27,9.3,5.03,1.75,2.53-.26,6.63.52,9.35,3.37-1.9,5.51-7.82,9.49-7.05ZM275.66,262.17l9.38.72-3.69-8.7,6.81-8.04c-3.99.16-7.4,2.12-11.1.98-3.12-.97-4.19-4.66-6.73-6.24-1.45,2.97-.72,7.31-3.02,9.44-2.75,2.55-7.16,2.69-10.39,4.73,2.74,2.02,7.03,2,9.34,4.45.99,2.87.54,7.17.1,10.28,2.74-2.19,5.21-7.92,9.29-7.61ZM398.69,278.63c-1.26-3.17-4.31-7.04-3.23-10.04,1.33-3.71,5.63-5.43,7.18-8.16-4.88.06-8.75,1.55-12.2.2-2.46-1.21-3.31-4.97-5.42-6.59l-4.28,8.78c-1.73,3.56-8.11,3.37-11.18,5.21,2.64,2.02,7.5,2.23,9.15,5.11s.16,7.13-.35,10.5c11.66-7.5,4.76-8.18,20.32-5.01ZM304.33,292.87c.4,5.01-1.31,9.79-5.05,13.69-.15,5.23-3.65,19.35-9.33,19.11-1.75-.07-2.88-2.18-4.01-2.81.51-2.58-2.43-5.18-2.25-7.93.66-3.43,4.87-5.24,6.65-8.44-3.58-.24-7.24.59-11.42.73-2.4-1.98-3.81-4.86-5.79-6.89-5.96,11.9-.11,8.2-14.95,14.12,2.33,1.78,7.11,1.48,9.28,4.32,1.95,2.55.52,7.32.73,10.26.13,1.88-1.76,3.97-2.04,6.04-.84,6.26,16.82,14.85,25.3,9.49,15.36-9.69,12.75-20.79,20.37-18.22,4.61,1.56,11.56,3.7,14.26-2.17,2.57-5.56.44-12.15-1.12-17.69-4.44-15.71-11.91-13.44-11.98-19.58,3.11-1.09,6.15.38,10.01,1.26-.35-3.4-3.78-5.89-2.95-9.09.9-3.47,4.66-5.63,7-7.89-4.08-.38-7.94,1.95-11.88.68-2.57-.83-3.31-4.35-6.05-6.01-4.72,11.14-1.33,8.28-14.14,13.14,2.38,2.3,6.93,1.62,8.7,4.42,1.45,2.7.44,6.64.66,9.44ZM425.56,301.15c2.96-1.88,6.93,2.31,10.16,1.75.15-3.29-4.66-7.02-2.74-9.59l6.26-8.38c-3.41-.22-7.51,1.61-10.98-.1-2.5-1.23-2.78-4.57-5.42-6.32l-3.89,9.39-13.06,4.6c3.17,2.29,7.59,1.98,9.81,4.88s.36,7.77-.4,10.29l10.26-6.51ZM359.72,312.75l-2.73-8.82c2.14-3.15,5.19-5.24,6.94-8.5-3.84-.72-9.24,2.59-11.49-.11l-5.62-6.73c-5.26,13.02-1.92,8.05-14.79,13.73,2.14,2.46,6.82,3.03,8.61,5.82s-.24,6.94.24,9.87c13.47-10.78,5.26-5.8,18.84-5.25Z"/><path class="cls-1" d="M743,278.81c-.02.42-.13,1.22.03,1.61s1.2.92,1.83.72c3.45-1.09,5.75.71,8.58,1.29,5.04,1.03,10.13,1.32,14.56,4.71-.63,8.6-3.08,11.89-3.21,18.61-5.58,1.8-19.14-5.37-19.87-1.7-26.47-4.28-52.84-8.41-80.11-10.49-22.96-1.75-44.31-5.12-66.94-9.22-35.55-6.44-70.95-.89-104.75,10.7-11.36,3.9-21.91,7.12-33.02,9.05-.15-8.26,2.54-23.58,4.11-32.09,3.26.02,46.01-14.17,61.94-16.87,21.3-3.61,42.31-3.95,63.94-2.05,16.04,1.41,30.76,5.72,46.63,8.2l61.11,9.52c15.49,2.41,30.67,3.51,45.17,8Z"/><path class="cls-6" d="M271.99,228.72l-5.81,5.69c-1.05,1.02.65,3.04.89,4.97l-6.93,5.65c-4.26,3.47-13.49,4.47-20.08,10.15.62-.54-12.92,7.78-11.52,13.45.85,3.45,3.44,5.99,3.23,9.42-.72-.17-1.45-.39-2.08-.67l-1.95,9.38-11.34,5.18c2.27,1.67,6.71,1.25,9.09,3.67,2.53,2.94.95,8.14.5,11.43-1.12,8.32.6,16.53,3.08,24.78,1.02,3.39,1.71,5.01,4.8,6.34-2.59,14.08-1.05,9.2-12.83,15.38l9.39,3.68.29,10.51c3.65-2.19,4.93-6.97,8.61-8.1,3.21-.98,7.26.88,10.31,1.17-1.72,5.85.61,11.05,5.18,15.55,1.52,1.5,2.08,5.3,5.15,4.62,3.91-.86,6.88-2.94,10.11-2.88-12.34,6.86-25.46,12.35-37.26,20.22-3.52,2.35-7.1,4.75-10.81,6.68-13.61-43.21-18.52-95.31-23.77-140.85l-1.31-11.32c24.99-9.05,49.65-18.08,75.05-24.12Z"/><path class="cls-1" d="M716,336.87c1.68.27,3.73,2.38,6,.87.22.15.73.09,1,.09-.04.1-.04,1.01.33,1.04,11.43.74,37.29,5.77,48.93,8.93l-2.91,14.09c-.56,2.7.76,5.71,1.35,8.35,4.44.77,8.24,2.3,9.46,7.09-7.32-1.66-13.81-2.82-20.91-3.61-6.1-.68-17.74-4.67-18.36-1.69-.53-.11-1.13,0-1.68-.04.59-1.18-.41-2.12-1.69-2.06-.82.04-2.39.41-1.83,1.7-12.44-2.59-25.16-3.06-38.82-4.77.22-9.4-5.61-14.63-14.25-15.76-18.94-2.47-37.1-6.5-55.63-10.93-6.34-.88-12.29-.51-18.42-1.65l-48.72-9.1c30.21-3.55,60.27-3.2,91.18-.38,22.28,2.03,43.62,4.33,64.97,7.83Z"/><path class="cls-4" d="M702.78,445.97c.48.29,1.03,1.04,1.72.97.56-.06,1.86.15,1.66-.82,1.75.2,3.82.04,5.61.09-.74,1.42,1.05,1.78,1.81,1.83.9.06,1.85-.21,2.59-.18l4.62.2c.53,1.26,2.29.76,3.39.8l3.59.12c1.78,1.56,4.25.91,6.46,1.01l1.54.07c2.43,1.55,5.6,1.45,8.4,1.81,1.15.15,2.96-.31,3.99.05,2.3,1.71,5.56.37,8.17,1.81,2.36,1.3,4.26,1.99,6.5,2.35-.98,3.53,8.37,1.99,10.87,6.06,1.78,2.9-4.31,18.75-5.9,22.7-3.63,9.02-5.63,13.91-16.83,14.45-9.09.43-13.83-1.72-24.91-2.62l-11-.9c-4.22-.35-8.73-2.25-12.14.2-.91-.09-1.86,0-2.76-.1,2.33-3.12-10.66-1.85-8.25-.97-.6-.07-1.27-.28-1.89-.34-.31-1.24-1.26-2.16-2.45-2.58l-.54-4.96c.68.49.78-.65.98-1.07,3.13-1.73,7.94-6.88,7.37-11.86-2.03-17.58-3.53,5.17-3.44-28.08,1.17.58,2.28-.96,3.2-.86l7.65.83Z"/><path class="cls-1" d="M736.99,226.8l5.74,2.64,12.33,3.65c2.66.79,5.04,1.49,7.7,2.38l17.12,5.7c2.84.95,5.31,2.9,8.11,1.5.24-.12.73-.1,1-.07.22,1.78,2.6,2.19,3.51,3.76,1.1,1.9-.83,3.93-1.23,5.87-.99,4.76-5.15,8.57-10.42,6.89-21.67-6.92-43.36-12.14-65.72-16.22-.77.32-1.64.54-1.24,1.1l-12.48-2.21-37.43-3.77,2.06-1.97c-4.24.57-23.89-3.31-26.6-5.68-.67-2.35-1.06-5.76-3.67-7.33,5.15,1.87.01-13.44,1.96-17.99,34.15,5.33,68.99,7.84,99.24,21.74Z"/><path class="cls-3" d="M276.89,415.97c-3.17,3.44,4.12,8.08,7.01,11.17,4.31,6.43,9.88,11.49,16.37,15.83,1.47.27,2.59.58,3.55,1-9.93,4.12-29.88,10.5-38.94,17.98-8.26,2.79-14.88,8.91-21.98,13.95-5.67-11.24-8.39-23.76-11.77-35.82,5.18-2.78,10.63-5.78,14.77-9.94,10.29-4.86,20.11-10.82,30.99-14.16Z"/><path class="cls-1" d="M754.88,422.88c2.08.63,5.07,2.4,8.39,3.04-4,11.93-12.18,14.32-10.34,24.63-2.23.33-3.63.52-4.76,1.36-1.03-.37-2.84.1-3.99-.05-1.03-2.8-6.1-3.59-8.4-1.81l-1.54-.07c.53-1.83-1.54-2.22-2.73-2.1-1.37.13-3.02-.17-3.73,1.09l-3.59-.12c.58-.73-.12-1.52-.78-1.85-1.01-.51-1.94.67-2.62,1.05l-4.62-.2c.61-1.03-.37-1.6-.97-1.78-1.04-.32-2.59.15-3.44.13-1.78-.05-3.86.11-5.61-.09-.45-.38-.99-1.11-1.68-1.05-.63.06-1.82,0-1.7.9l-7.65-.83c-.76-1.11-1.93-1.81-3.19-2.21l-.05-28.92c5.17.29,10.47-.28,14.69,1.73,2.17,1.03,3.22-.2,5.38.08,14.72,1.91,29.31,2.94,42.93,7.06Z"/><path class="cls-3" d="M744.92,304.06c.73-3.68,14.29,3.5,19.87,1.7.13-6.72,2.58-10.01,3.21-18.61-4.43-3.38-9.52-3.67-14.56-4.71-2.84-.58-5.13-2.38-8.58-1.29-.63.2-1.68-.34-1.83-.72s-.05-1.2-.03-1.61c2.29.71,5,.26,7.7,1.42,5.25,2.26,10.96,2,16.38,3.56,5.82,1.68,54.15,14.96,53.87,19.26-.49,7.5-1.32,14.66-3.02,22.19-9.43-2.84-17.65-7.46-27.01-8.96-4.24-.68-7.58-2.42-11.54-3.52-11.47-3.19-22.95-6.85-34.46-8.71Z"/><path class="cls-3" d="M740.88,372.03c.62-2.98,12.26,1.01,18.36,1.69,7.1.79,13.59,1.95,20.91,3.61-1.22-4.79-5.02-6.32-9.46-7.09-.59-2.64-1.9-5.65-1.35-8.35l2.91-14.09c-11.64-3.16-37.5-8.2-48.93-8.93-.36-.02-.37-.94-.33-1.04,10.53.07,20.83,2.5,31.57,4.44,19.15,3.46,40.19,6.94,58,15.47l-6.3,31.82c-5.03-2.79-9.12-3.78-13.65-5.29l-8.91-2.97c-14.11-4.7-28.66-6.28-42.83-9.26Z"/><path class="cls-1" d="M581.03,218.18c-6.17,2.92-19.79-2.81-25.09.88-.54-.23-1.3.15-1.87,0-11.85-3.16-24.53-.2-36.74,3.17l-17.4,4.8c-4.43-8.88,8.35-8.31,16.45-17.65,4.96-5.73,12.6-4.63,18.63-1.37,5.65.14,6.18,5.24,13.89,6.43l-4.28-19.14c14,.83,27.65,1.1,41.87,3.06l-5.46,19.83Z"/><path class="cls-3" d="M785.93,463.99c-7.28-3.78-14.97-6.58-23.08-7.92-2.24-.37-4.14-1.05-6.5-2.35-2.61-1.44-5.87-.1-8.17-1.81,1.13-.84,2.53-1.03,4.76-1.36-1.84-10.32,6.34-12.71,10.34-24.63-3.31-.63-6.31-2.41-8.39-3.04,13.77,1.41,27.86,5.29,40.81,10.27-2.54,11.74-6.77,21.09-9.76,30.84Z"/><path class="cls-3" d="M535,208c-6.03-3.26-13.67-4.36-18.63,1.37-8.1,9.34-20.88,8.77-16.45,17.65l17.4-4.8c12.21-3.37,24.9-6.33,36.74-3.17-4.87-.6-9.67.56-15.09.91-25.15,1.61-43.55,13.71-67.74,14.95-.92-5.04,2.49-8.62,2.73-12.1l.19-2.82c1.28-1.53,1.16-3.77,2.66-5.16,11.13-6.06,21.71-13.1,32.87-19.96,1.73-1.06,4.16.13,6.37-.84,4.75,4.83,16.58,10.17,18.94,13.97Z"/><path class="cls-2" d="M264.88,461.95c5.47,15.76,13.88,21.2,23.13,34.56l-36.72,3.84c-2.98-8.86-7.05-16.29-8.38-24.45,7.09-5.04,13.71-11.16,21.98-13.95Z"/><path class="cls-3" d="M789,242.6c2.38.23,31.82,10.07,37.12,12.86l-2.18,20.73c-27.28-10.86-54.44-18.87-82.55-26.45-9.41-2.54-18.4-4.12-27.48-5.73-.4-.57.47-.78,1.24-1.1,22.36,4.08,44.04,9.3,65.72,16.22,5.26,1.68,9.42-2.13,10.42-6.89.4-1.94,2.33-3.97,1.23-5.87-.91-1.57-3.29-1.98-3.51-3.76Z"/><path class="cls-1" d="M303.82,443.97c-.97-.42-2.08-.72-3.55-1-6.49-4.34-12.06-9.4-16.37-15.83-2.88-3.09-10.17-7.73-7.01-11.17,3.76-1.15,7.23-4.19,11.71-5.56l18.89-5.75c.52,12.53.43,24.72.27,37.31-.02,1.38-2.94,1.59-3.93,2Z"/><path class="cls-6" d="M785.93,463.99c-4.26,13.9-8.09,27.97-14.02,41.83-23.12-4.97-46.16-7.55-68.99-9.86,3.41-2.45,7.92-.54,12.14-.2l11,.9c11.09.91,15.82,3.06,24.91,2.62,11.2-.53,13.2-5.43,16.83-14.45,1.59-3.96,7.68-19.81,5.9-22.7-2.49-4.06-11.85-2.53-10.87-6.06,8.12,1.34,15.8,4.13,23.08,7.92Z"/><path class="cls-6" d="M373.23,337.89l-29.32,8.1c.06-8.28-.04-2.49-8.88-12.16-1.56-1.7-1.06-3.69.02-5.35,3.32-5.09,34.93-3.29,36.33,2.17l1.85,7.24Z"/><path class="cls-2" d="M245.9,430.13c-4.15,4.17-9.59,7.16-14.77,9.94-2.25-8.02-9.35-27.23-9.11-35.07,3.72-1.93,7.29-4.33,10.81-6.68,1.26,8.78,8.81,23.74,13.07,31.81Z"/><path class="cls-6" d="M476.82,214.83c-1.51,1.39-1.38,3.63-2.66,5.16-1.97-2.47,1.52-6.68-3.24-11.47-2.66-2.68-6.04-.84-9.15-.87-5.82-.05-11.5-1.62-17.37-.33-1.65,5.21,3.01,8.61-.82,9.55-.84-6.94-3.74-10.83-4.82-19.22,14.31-1.46,27.88-2.73,42.09-2.8-1.69,7.08-3.89,13.36-4.03,19.98Z"/><path class="cls-3" d="M635.79,223.06c2.61,1.56,3,4.98,3.67,7.33,2.71,2.37,22.37,6.25,26.6,5.68l-2.06,1.97-9.81-1.69c-8.9-1.53-19.28-3.15-27.13-5.51-19.6-5.88-39.41-9.43-59.99-10.88-4.06-.29-7.76.56-11.14-.88,5.31-3.69,18.92,2.04,25.09-.88l30.71-14.52c8.31,6.91,15.37,14.2,24.05,19.4ZM620.43,227.02c3.23.87,5.22-.7,6.55-2.61,4.06-5.81-5.42-6.32-10.51-13.87-.82-1.22-2.54-1.32-3.41-1.13-.66.14-1.54,2.46-2.22,2.44-6.4-.14-11.88-.18-17.21,3.66-2.13,1.53-5.85.21-7.24,4.39,11.38,2.25,22.35,3.97,34.04,7.12Z"/><path class="cls-6" d="M464.21,272.02c-1.58,8.51-4.26,23.82-4.11,32.09-3.49,5.99-2.28,13.35-4.44,20.59-11.2,1.6-21.99,3.32-32.66,3.5.84-1.16,13.37-2.51,19.07-9.05,12.87-14.78,16.03-10.23,14.25-25.08-1.11-9.25,1.76-15.8,6.63-22.06h1.26Z"/><path class="cls-4" d="M326,377c-1.73.24-3.63,1.73-5,0,.32-.32.89-1.07,1.91-1.26l74.89-13.65c5.82-1.06,10.93-3.46,17.82-1.88l-50.25,9.89c-13.51,2.66-26.37,5.11-39.38,6.9Z"/><path class="cls-6" d="M287.08,372.1c-2.14.8-4.7.84-6.92,1.08.68-4.48-5.38-5.07-12.03-12.4-1.03-1.14-2.22-5.42-.31-5.6,4.63-.44,8.19,3.15,11.43,5.49,4.18,3.03,8.74,4.37,12.58,7.98-2.23,1.48-3.44,2.93-4.74,3.45Z"/><path class="cls-3" d="M788,242.67c-2.8,1.4-5.27-.56-8.11-1.5l-17.12-5.7c-2.66-.89-5.04-1.59-7.7-2.38l-12.33-3.65-5.74-2.64c6.02,1.19,11.9,3.03,18.16,5.01,11.24,3.57,22.53,6.08,32.84,10.85Z"/><path class="cls-6" d="M473.97,222.81c-.24,3.48-3.65,7.06-2.73,12.1l-1.87,5.09c-1.1-5.19.19-16.11,4.6-17.19Z"/><path class="cls-6" d="M700.16,495.86l-8.25-.97c-2.4-.88,10.59-2.14,8.25.97Z"/><path class="cls-6" d="M290.94,223.81c.7-.26-20.6,7.72-16.14,3.46,5.33-1.26,10.7-2.83,16.14-3.46Z"/><path class="cls-6" d="M690.02,494.55c-.74-.08-1.91.02-2.4-.61-.46-.58,0-1.44-.05-1.97,1.19.42,2.14,1.34,2.45,2.58Z"/><path class="cls-3" d="M695.14,445.14c-.92-.1-2.03,1.44-3.2.86v-3.07c1.27.4,2.44,1.11,3.2,2.21Z"/><path class="cls-6" d="M468.32,245c-.31-1.32-1.02-3.81.9-4,.33.71.66,1.47.53,2.34-.11.72-.74,1.29-1.43,1.66Z"/><path class="cls-6" d="M462.92,271c.34-1.98-.81-4.73,1.08-6-.27,1.98.98,4.87-1.08,6Z"/><path class="cls-3" d="M739.2,371.99c-1.17-.07-2.36-.12-3.51-.36-.56-1.29,1.01-1.66,1.83-1.7,1.28-.06,2.28.88,1.69,2.06Z"/><path class="cls-3" d="M722,337.73c-2.27,1.52-4.33-.59-6-.87,2.03.19,4.24-.33,6,.87Z"/><path class="cls-6" d="M464,264c0-1.4-.6-3.65,1.22-4.01-.4,1.33.34,3.28-1.22,4.01Z"/><path class="cls-6" d="M467.33,250c-.16-.79-.38-1.51-.33-2.47.03-.57.07-1.77,1.2-1.53-.34,1.29.43,3.2-.87,4Z"/><path class="cls-6" d="M466.4,253c-.72-.09-1.3-.62-.97-1.01.62-.73,1.2-1.1,1.78-.99-.03.74-.14,1.58-.81,2Z"/><path class="cls-6" d="M377.03,336.98l-2.06.14c.34-.22.38-.83.73-1,.69-.34,1.84,0,1.33.86Z"/><path class="cls-6" d="M524,146c.27.78.75,2.91,2.04,2.91l30.96.09c2.06.57,4.82-1.17,6.12,1.81-4.18,2.28-28.13,20.07-28.73,21.2-1.58,2.98.22,4.4.77,6.38l8.04,28.74-30.58-20.05-31.61,21.3,7.89-28.1c.65-2.33.04-4.97,2.33-7.33-9.5-7.7-18.75-14.52-28.54-21.59-.62-.44-.84-1.35-.72-1.78.11-.37.44-.68,1.02-.58,1.88,2.37,5.33.57,8.18.24,5.53-.63,10.73-.2,15.82-.24l12.06-.1,8.27-25.58c1.18-3.65,2.1-8.59,5.33-10.84l11.34,33.52Z"/><path class="cls-1" d="M575,181.81l-1-.03c.29.02.72-.39,1,.03Z"/><path class="cls-6" d="M687.03,487.01c-.05-.44.66-.89.98-1.07-.2.41-.3,1.56-.98,1.07Z"/><path class="cls-1" d="M376,197c.1-.42.51-1,1-1-.13.44-.51.93-1,1Z"/><path class="cls-5" d="M406.23,766.26c.64,1.52,1.94,2.79,3.52,4.04l35.2,27.84,30.38,19.75c12.05,7.83,23.98,14.63,37.51,19.85,34.23-17.47,65.79-37.71,94.94-61.75,3.62-2.99,6.91-5.47,9.28-8.78,6.2-.36,12.77.24,19.18,2.38-37.69,34.21-79.1,62.27-124.19,83.43-44.67-20.84-89.69-50.42-124.88-85.09,2.45.06,5.76-1.24,8.86-1.34l10.2-.34Z"/><path class="cls-3" d="M427,752.85c2.18,1.83-19.89,2.2-20.05,2.22l-27.34,2.45c-2.74.25-3.94,2.13-3.93,3.96.01,2.65,1.53,3.66,4.32,3.89,11.15.91,21.83-1.39,32.94-2.01l16.06-.9,18-1.07,20.06-.45-2.05,2.07c-3.42,0-7.27-.75-10.17.91-.48-.17-1.18.09-1.69.08-15.69-.57-31.27,1.74-46.91,2.27l-10.2.34c-3.1.1-6.41,1.39-8.86,1.34-5.6-.13-11.08.37-17.14.72l-14.16.81c-10.05.58-19.71,1.1-29.85,2.26l-29.02,3.32c-1.03.12-2.22-.39-2.73-.76-.3-.22-.26-.81-.24-1.27,33-10.06,59.74-15.11,94.9-17.92l11.08-.89c4.8-.38,9.22-.93,14.01-1.04l12.99-.32Z"/><path class="cls-6" d="M453.14,763.99c1.71,4.7-11.5-.73-15.85,4.15,3.65,1.17,4.94,2.64,6.73,5.11,6.32,8.73,23.24,9.58,33.58,11.26,3.56.58,5.85,3.23,9.76,1.85,4.72-1.67,10.48,1.27,15.14-.92,1.64-.77,2.65-3.42,4.72-2.53-.74,1.97-1,7.12-3.52,7.42l-17.38,2.03,14.12,11.75c-1.54,5.99-3.32,11.37-4.09,16.91l16.21-8.95,14.31,7.95c-.22-5.73-2.09-10.53-2.9-16.08,3.14-4.48,12.5-8.89,13.8-12.75,9.32-.76,2.47.62,8.77-1.67l24.12-8.79c7.42-2.7,14.78-5.19,19.03-13.07-6.16-3.55-22.12.43-19.67-3.66,2.27-.29,4.65.13,6.93.13,3.62,0,7.29-.28,10.9-.04,1.35.09,2.96,1.63,5.14,1.11,2.51-.6,22.68.49,24.1,2.02-2.37,3.31-5.66,5.79-9.28,8.78-29.16,24.04-60.71,44.29-94.94,61.75-13.52-5.22-25.46-12.02-37.51-19.85l-30.38-19.75-35.2-27.84c-1.58-1.25-2.88-2.53-3.52-4.04,15.63-.52,31.21-2.84,46.91-2.27Z"/><path class="cls-1" d="M582.84,752.13c-3.57,3.06,15.91,2.06,13.22.81,1.04-.07,2.86-.34,3.82.06-.46-.23-.04,2.1.44,2.06,8.75-.84,16.86,1.02,25.74,1.7,5.7.44,12.34.5,17.96,2.55,1.45.47,1.64,5.46.15,5.71-17.14,2.36-33.23-2.71-47.28-1.8-3.16.21-6.9-1.42-9.05.87-3.62-.24-7.29.04-10.9.04,3.49-4.46-18.09-1.13-12.93-1.13h-23.12c-1.27,0-2.57-.26-3.84-.08l-72.04.08,2.05-2.07-20.06.45-18,1.07-16.06.9c-11.12.62-21.79,2.92-32.94,2.01-2.79-.23-4.3-1.23-4.32-3.89,0-1.83,1.19-3.72,3.93-3.96l27.34-2.45c.16-.01,22.23-.39,20.05-2.22,8.49-.21,16.82-1.21,26.13-1.49,43.62-1.34,86.61-.48,129.72.78Z"/><path class="cls-3" d="M738,205c-1.99.79-3.64,1.6-5.07.44,1.98-.99,3.59-.21,5.07-.44Z"/><path class="cls-3" d="M745.31,206.91c1.05.57.61,1.1-.55,1.23-2.32-.16-2.03-1.36.55-1.23Z"/><path class="cls-3" d="M741.49,206.73c.17.49-1.42.31-1.95.26-.61-.06-.71-.84,0-.97.48-.09,1.54-.49,1.95.71Z"/><path class="cls-3" d="M596.06,752.94c2.69,1.25-16.79,2.26-13.22-.81,6.41.19,10.21,1.01,13.22.81Z"/><path class="cls-1" d="M687.34,552.4c-1.95-1.67-2.11-4.94-3.26-7.01-1.31,1.54-1.8,3.7-3.26,6.12l-49.38-3.67c2.02-11.67,7.06-20.39,9.52-31.83l26.1,1.1,32.89,2.49,28.87,2.72,12.45,37.22-53.92-7.13Z"/><path class="cls-1" d="M663.29,598c.08.29-.07.7-.11,1-.89.25-1.9.76-2.1,1.57-.37,1.48-.31,2.12,1.08,2.34,13.62,2.1,27.83,4.77,41.43,3.97,4.1-.24-2.01-10.71-2.92-13.91l20.26,2.09c2.8.29,4.96,1.53,5.74,3.64s-1.49,4.22-1.26,6.47,5.94,1.27,3.7,8.92c-1.32,4.48-1.68,9.32-4.89,12.67-7.4-.48-14.12-2.61-21.19-3.58l-16.06-2.21-30.98-4.07-23.72-2.29-19.25-1.75c-.16-9.52,4.43-14.11,5.67-24.85l.12-1c3.96-2.42,8.54-.24,13.13-.14,7.16.17,26.79.73,32.43,2.84-.72,3.2-1.72,5.83-1.07,8.29Z"/><path class="cls-3" d="M703.59,606.88l-4.51-15.93c20.12,2.71,35.47,3.16,55.91,7.94l12.54,38.41-21.82-3.93c-5.05-.91-9.35-1.67-14.38-2.77-39.96-8.73-80.28-12.51-121.57-16.41,2.87-9.29,5.47-18.03,8.93-26.18-1.24,10.75-5.83,15.34-5.67,24.85l19.25,1.75,23.72,2.29,30.98,4.07,16.06,2.21c7.07.97,13.79,3.1,21.19,3.58,3.21-3.35,3.57-8.19,4.89-12.67,2.25-7.65-3.47-6.71-3.7-8.92s2.04-4.36,1.26-6.47-2.94-3.36-5.74-3.64l-20.26-2.09c.91,3.2,7.03,13.67,2.92,13.91Z"/><path class="cls-3" d="M775.6,667.26c3.55,1.09,4.77,12.03,9.02,19.29l-58.4-15.5c-2.14-6.27-4.66-11.43-5.92-18.31,18.76,4.47,36.95,8.91,55.31,14.53Z"/><path class="cls-6" d="M697.77,602.73c-9.76.48-18.74-1.4-28.67-2.26l14.07-44.28,14.6,46.55Z"/><path class="cls-3" d="M608,639c-1.45.06-4.08-.52-4.65.9-.73,1.81-.67,3.8.1,6.12,4.26-1.91,8.14-.94,12.62-.38l31.63,3.94c1.24.15,1.61-3.06,1.5-4.03s-1.16-1.97-2.2-2.75c.89.42,3.85-.47,3.91.9-.41,5.61-2.18,10.42-4.03,15.45l-52.99-3.3c3.88-5.57,6.45-11.46,8.61-17.33.54-1.33,5.24-.87,5.51.5Z"/><path class="cls-1" d="M608,639c.33-.01.67,0,1,0-.07.8.9,1.01,1.94,1.01h8.06s1-.01,1-.01c-.08.81.9,1.01,1.95,1.01h7.05s-.08-1.02-.08-1.02c.45,0,1.53.05,1.16.75-.34-.05-.73.26-1.08.26,2.25,1.63,5.9,1.69,8.08.04,2.96.18,7.47.54,9.92,1.75,1.04.78,2.08,1.76,2.2,2.75s-.25,4.19-1.5,4.03l-31.63-3.94c-4.48-.56-8.36-1.53-12.62.38-.78-2.33-.83-4.31-.1-6.12.57-1.42,3.2-.84,4.65-.9Z"/><path class="cls-3" d="M663.29,598c-.65-2.47.34-5.09,1.07-8.29-5.63-2.12-25.27-2.68-32.43-2.84-4.6-.11-9.17-2.29-13.13.14-1.51-3.76,11.76-1.59,14.29-1.2,6.17.96,12.33.24,18.45.67l14.28,1c.29,3.8-.97,7.52-2.54,10.53Z"/><path class="cls-3" d="M619,640h-8.06c-1.05.01-2.02-.2-1.94-1h8.06c1.05-.01,2.02.2,1.94,1Z"/><path class="cls-3" d="M628.92,639.99l.08,1.01c.35,0,.73-.3,1.08-.26,2.32.32,4.68.16,7.01.29-2.18,1.66-5.83,1.59-8.08-.04h-7.05c-1.05.01-2.03-.19-1.95-1h8.92Z"/><path class="cls-3" d="M662.17,602.91c-1.39-.21-1.46-.86-1.08-2.34.21-.81,1.22-1.32,2.1-1.57-.17,1.34-.48,2.67-1.02,3.91Z"/><path class="cls-1" d="M544.08,543.51c-21.37-3.73-41.92-2.86-62.83,1.03l-59.92,4.44c-.65-7.54-1.05-16.72,4.64-22.99,7.58-8.36,18.58-12.5,29.96-14.32,30.28-4.83,84.43-5.31,112.97,7.32l.02,24.95c-8.41,1.8-16.11,1.09-24.83-.43Z"/><path class="cls-3" d="M571.55,643.51c-18.41,14.71-97.03,10.79-120.97,6.97-8.41-1.34-16.25-2.67-24.23-5.73-.44-3.54-.42-6.99-.06-10.76,20.11-1.61,39.39-1.55,59.74-1.62,29.96-.1,58.9.41,89.04,2.01.04,3.06-.99,7.1-3.53,9.13Z"/><path class="cls-1" d="M524.47,610.11c-3.23-6.25-8.17-9.03-14.34-10.25l-33.4-6.58c-6.95-1.37-14.11-1.47-20.07-6.02,31.39-2.86,61.31-4.75,91.91-4.76,5.12,0,10.43,3.87,14.6,6.08,8.32,4.42,12.96,12.98,12.86,22.55l-51.56-1.02Z"/><path class="cls-4" d="M306.78,552.82c-.49-.38-1.01-.13-1.21.21-1.54,2.56.04,46.74-.93,55.98-1.1,10.46-10.06,18.19-18.56,23.06-4.7-1.34-13-2.18-13.89-5.51-.27-1.01,2.04-2.18,1.82-3.55-.37-2.23-3.11-4.15-2.79-6.94s3.21-4.38,4.36-6.58c-2.61-.33-5.65,1.15-8.27-.01-2.43-1.07-2.69-4.32-4.98-5.54-.03,1.44-.97,2.35-1.12,3.08-3.08,1.92-7.69,1.26-11.1-1.44-2.57-2.04.69-13.29-2.81-11.79l.36-67.72,58.85-5.67.29,32.45ZM293.22,546.05c.45-2.96-1.83-4.64-1.26-7.03.63-2.63,3.53-3.91,5.02-5.79-2.41.34-6.19.72-8.53-.66-1.69-.99-1.72-3.69-4.42-5.95-.53,6.54-4,9.21-10.36,9.39,2.05,2.34,5.08,2.3,6.67,4.79,1.42,2.23-.64,4.77.54,7.48,3.75-4.57,7.56-5.55,12.35-2.23ZM271.74,572.88c-.47-3.42-2.81-5.81-1.86-8.71.89-2.72,3.73-3.76,5.08-5.96-2.8.6-5.92,1.61-8.72.35-2.43-1.1-2.62-4.42-5.01-5.73-.73,3.2-1.17,6.1-3.52,7.53-1.99,1.21-4.51,1.16-7.73,2.02,2.17,1.94,5.75,2.3,7.5,5.05,1.37,2.15-.32,5.07.24,7.7,2.4-1.03,3.92-4,6.57-4.64s5.22,1.51,7.45,2.38ZM293.93,594.47c.73-4.31-2.39-5.89-.6-8.02l3.99-4.75c-12.44-.15-6.33.3-12.57-5.42-.8,5.98-4.85,8.27-11.01,8.86,2.35,2.06,5.63,2.11,7.35,4.61,1.59,2.3-.46,4.97.53,7.74,3.9-4.48,7.29-6.37,12.32-3.03Z"/><path class="cls-4" d="M397.81,514.23c-1.09,1.35,2.94,1.46,2.94,2.29-.04,6.64,2.06,14.82-.16,21.27l-4.06,11.78c-2.16,6.26-5.5,12.22-10.77,15.37-3.72-2,.94,6.28-10.25,6.66,3.56,4.96,6.25.73,5.94,10.97,8.48-7.16,7.77-.39,11.33-2.46,1.17-.68,4.23-.16,5.2.96,3.31,3.82-.06,8.12-1.47,11.3-3.21,7.26-6.82,11.71-13.99,15.36-6.6,3.36-17.56,11.63-26.74,10.28l.2-19.75c2.2.53,3.89,1.8,4.66,2.99,1.1,1.72.13,4.37.53,6.84l4.76-3.96c1.97-1.64,4.63,1.41,6.7.65.52-1.65-1.97-4.2-1.3-5.82.73-1.76,2.59-2.78,3.88-4.91-6.71-.75-6.57,1.52-10.73-6.08-1.13,2.19-1.22,4.42-2.37,5.85-.99,1.23-6.18,2.19-6.18.38l-.2-40.97c2.62-.94,4.77,1.18,5.25,2.58.66,1.94-.26,3.64.15,6.31,2.11-1.09,3.38-3.7,5.86-3.83,2.07-.11,3.68,1.82,5.86,1.59.19-2.17-1.71-4.09-1.38-6.16.41-2.53,3.5-2.97,4.16-5.8-5.62,1.52-8.62-.37-11.73-5.71-1.23,2.89,0,5.33-2.04,6.39-1.35.7-5.8,1.76-5.91-.23-.57-11.11-.28-21.37-.11-32.27l41.98-1.82ZM392.62,537.1c-1.57-5.02-1.05-7.37,2.62-10.48-2.84-.96-4.88.36-7.03-1.09-1.38-.93-1.23-3.01-3.13-4.91-.99,5.03-3.35,6.81-8.57,7.71,4.63,2.03,5.88,4.99,4.85,10.36,3.59-3.1,6.9-3.79,11.28-1.59Z"/><path class="cls-1" d="M297.59,675.8l-21.65.56c-7.08-3.41-13.94-5.94-20.29-12.04,32.04-10.44,64.51-17.35,97.99-22.54,16.03-2.49,31.01-5.1,47.74-5.9-2.56,23.22-89.54,39.55-103.78,39.92Z"/><path class="cls-6" d="M306.78,552.82c-.12,24.45.5,43.11-.17,66.77-.1,3.33,2.31,5.82,1.71,9.62-20.79,4.04-40.08,9.84-60.71,15.66l-.15-41.25c-.01-3.52-.99-6.75-.18-9.85,3.51-1.5.24,9.75,2.81,11.79,3.41,2.71,8.02,3.36,11.1,1.44-.24,1.12.71,3.19-.96,4.29-2.64,1.73-5.78,1.89-8.18,3.18,3.05,1.7,5.57,2.36,6.52,3.95,1.33,2.22,1.15,6.33.61,8.48,2.52-1.44,4.47-5.07,7.55-5.42,2.48-.28,4.93,2.06,7.27,1.52.22,1.37-2.09,2.54-1.82,3.55.89,3.33,9.19,4.17,13.89,5.51,8.51-4.86,17.47-12.6,18.56-23.06.97-9.24-.61-53.42.93-55.98.2-.33.73-.58,1.21-.21Z"/><path class="cls-6" d="M355.78,618c9.18,1.35,20.15-6.92,26.74-10.28,7.17-3.65,10.78-8.1,13.99-15.36,1.4-3.18,4.78-7.48,1.47-11.3-.97-1.11-4.03-1.63-5.2-.96-.77-1.86-2.25-3.92-1.52-6.04.57-1.66,2.24-2.95,3.45-4.67-2.31-.21-4.65.22-6.66-.68-1.18-.52-2.17-2.1-2.29-3.78,5.27-3.14,8.61-9.1,10.77-15.37l4.06-11.78c2.22-6.44.12-14.62.16-21.27,0-.83-4.03-.94-2.94-2.29,1.86-.08,2.95.38,3.63.87,1.42,1.01,1.24,16.99,1.26,19.89l.47,80.31-46.26,4.48c-1.27.12-1.92-.05-1.96-.95-.02-.46.37-.57.83-.84Z"/><path class="cls-4" d="M368,418c0,1.09.65,2.7-.8,4.03l-.22-32.97c0-.69.68-1.18,1.02-1.06v30Z"/><path class="cls-6" d="M538,469c-7.11-.27-14.37.46-21.92-.23-3.76-.34-7.15-1.35-11.17-.62-2.15.39-4.41.1-5.56-1.28,2.9-8.45-2.67-6.48-.52-21.87,2.42-.83.28,8.6,1.79,11.67,2.02,4.13,30.84,1.64,36.66,1.6-.05,4.53.08,7.58.73,10.73Z"/><rect class="cls-4" x="496" y="365" width="1" height="45"/><path class="cls-6" d="M679,715.29c-3.11.57-5.74-.37-8.54-.89-.41-3.16-.17-5.9.02-9.45,3.27-.69,6.96-.33,9.83,1.7,1.63,1.15,2.33,3.09,2.11,4.7-.2,1.41-1.18,3.52-3.43,3.93Z"/><path class="cls-2" d="M535.09,436.8c.63,6.12,1.51,13.33-1.66,18.91-3.96-11.23-11.21,1.22-24.01-4.97-3.95-1.91-5.26-4.29-6.27-8.2-.48-1.83-3.23-3.3-2.18-5.54,6.52-1.87,27.14-1.01,34.12-.2Z"/><path class="cls-2" d="M539,370c-.29-.4-.96-.86-.94-1.5s.59-1.1.94-1.5v3Z"/><path class="cls-6" d="M319.59,712.07c3.07,4.47,3.98,18.21-1.78,21.5-2.35,1.34-7.25,2.73-8.86.6l-.74-21.89c1.87-2.75,9.4-3.09,11.37-.22Z"/><path class="cls-6" d="M493.08,704.29c-2.78.89-5.27.49-7.9.22-.43-3.58-.1-6.66-.14-10.81,2.85-.48,6.17-.9,9.06.42,2.18,1,2.74,3.33,2.55,5.28-.17,1.72-.96,4.06-3.57,4.89Z"/><path class="cls-6" d="M628.93,352.18c2.44,3.16,4.78,9.11,1.07,11.49-1.18-1.07-1.82-3.12-3.5-4.03s-3.29.52-3.9,1.46c-.79,1.23-.92,2.67-.86,3.85-3.54-1.46-3.48-6.08-.83-9.22,1.12-1.33,2.56-2.28,3.09-3.73l4.93.18Z"/><path class="cls-2" d="M630,363.67c-.8.51-2.55,1.12-2.84,1.98s1.79,1.25,1.92,2.3c-3.4.66-5.09-2.07-7.34-3-.06-1.18.06-2.62.86-3.85.61-.95,2.29-2.34,3.9-1.46s2.31,2.96,3.5,4.03ZM627.11,363c0-.61-.5-1.11-1.11-1.11s-1.11.5-1.11,1.11.5,1.11,1.11,1.11,1.11-.5,1.11-1.11Z"/><circle class="cls-6" cx="639.5" cy="395.5" r=".5"/><path class="cls-6" d="M268.19,329.05c9.36-8.36,6.09-8.01,17.76-6.18,1.13.63,2.26,2.73,4.01,2.81,5.68.24,9.18-13.88,9.33-19.11,3.73-3.9,5.44-8.68,5.05-13.69,2.97-1.92,5.27-4.77,8.64-5.94.07,6.14,7.54,3.86,11.98,19.58,1.56,5.53,3.69,12.12,1.12,17.69-2.71,5.87-9.65,3.73-14.26,2.17-7.62-2.57-5.01,8.52-20.37,18.22-8.48,5.35-26.14-3.23-25.3-9.49.28-2.07,2.18-4.16,2.04-6.04Z"/><path class="cls-5" d="M359.72,312.75c-13.57-.55-5.36-5.53-18.84,5.25-.48-2.92,1.62-6.98-.24-9.87s-6.48-3.36-8.61-5.82c12.87-5.68,9.53-.72,14.79-13.73l5.62,6.73c2.26,2.71,7.65-.6,11.49.11-1.74,3.26-4.79,5.35-6.94,8.5l2.73,8.82Z"/><path class="cls-5" d="M285.94,322.87c-11.67-1.82-8.4-2.18-17.76,6.18-.21-2.94,1.22-7.7-.73-10.26-2.17-2.84-6.95-2.55-9.28-4.32,14.85-5.92,9-2.22,14.95-14.12,1.99,2.02,3.39,4.91,5.79,6.89,4.18-.14,7.84-.97,11.42-.73-1.78,3.19-5.99,5.01-6.65,8.44-.18,2.75,2.76,5.35,2.25,7.93Z"/><path class="cls-5" d="M249.65,360.81c-3.06-.29-7.1-2.15-10.31-1.17-3.69,1.13-4.97,5.91-8.61,8.1l-.29-10.51-9.39-3.68c11.78-6.18,10.23-1.29,12.83-15.38,2.58,1.12,3.39,5.6,6.51,6.58,3.68,1.16,7.53-1.56,11.42-1.17-1.16,2.96-5.25,5.07-5.58,8.62-.3,3.18,3.41,5.61,3.42,8.62Z"/><path class="cls-5" d="M312.97,286.93c-3.37,1.18-5.67,4.02-8.64,5.94-.22-2.79.79-6.74-.66-9.44-1.77-2.8-6.32-2.12-8.7-4.42,12.81-4.86,9.42-1.99,14.14-13.14,2.74,1.66,3.48,5.19,6.05,6.01,3.94,1.27,7.8-1.05,11.88-.68-2.34,2.26-6.1,4.42-7,7.89-.84,3.21,2.6,5.69,2.95,9.09-3.86-.89-6.9-2.35-10.01-1.26Z"/><path class="cls-5" d="M231.78,278.05c-.13,2.12,3.66,5.53,5.7,5.66,2.75.18,5.96-2.13,8.76-.44-1.08,2.82-3.47,4.46-4.94,6.99.84,3.23,3.43,5.53,4.77,8.91-3.39.37-6.79-2.4-10.16-1.58-4.34,1.06-8.36,9.96-9.9,9.45.44-3.29,2.02-8.49-.5-11.43-2.38-2.41-6.82-1.99-9.09-3.67l11.34-5.18,1.95-9.38c.63.28,1.36.49,2.08.67Z"/><path class="cls-5" d="M351.37,250.81c-3.98-.76-6.12,5.16-9.49,7.05-.78-2.72,1.23-6.82-.52-9.35-1.9-2.76-6.17-3.06-9.3-5.03,14.56-5.35,9.13-2.37,14.78-12.91l6.31,6.27c4.09-.62,7.91-.44,11.45-1.4-2.84,3.3-6.61,5.24-7.25,8.44s2.68,6.1,2.87,8.62l-8.85-1.7Z"/><path class="cls-5" d="M426.76,240.35l-8.78,5.7c-1.13-2.53.53-5.69-.8-8.01-1.96-3.44-6.15-4.14-9.15-5.46,14.27-4.78,9.9-2.12,16.03-12.46,7.03,8,4.64,5.51,16.24,5.5-5.6,9.21-8.37,2.98-4.91,15.47-2.81,1.06-6.19-2.32-8.63-.74Z"/><path class="cls-5" d="M275.66,262.17c-4.07-.31-6.55,5.42-9.29,7.61.44-3.11.89-7.41-.1-10.28-2.32-2.45-6.6-2.43-9.34-4.45,3.23-2.04,7.64-2.19,10.39-4.73,2.3-2.13,1.57-6.46,3.02-9.44,2.53,1.58,3.61,5.28,6.73,6.24,3.7,1.15,7.11-.81,11.1-.98l-6.81,8.04,3.69,8.7-9.38-.72Z"/><path class="cls-5" d="M398.69,278.63c-15.56-3.17-8.66-2.49-20.32,5.01.51-3.37,1.94-7.72.35-10.5s-6.51-3.1-9.15-5.11c3.06-1.83,9.44-1.65,11.18-5.21l4.28-8.78c2.11,1.62,2.96,5.38,5.42,6.59,3.45,1.34,7.32-.15,12.2-.2-1.56,2.73-5.85,4.45-7.18,8.16-1.08,3,1.97,6.88,3.23,10.04Z"/><path class="cls-5" d="M425.56,301.15l-10.26,6.51c.76-2.52,2.52-7.53.4-10.29-2.23-2.89-6.64-2.58-9.81-4.88l13.06-4.6,3.89-9.39c2.64,1.75,2.92,5.09,5.42,6.32,3.47,1.71,7.57-.13,10.98.1l-6.26,8.38c-1.92,2.57,2.9,6.29,2.74,9.59-3.22.56-7.2-3.63-10.16-1.75Z"/><path class="cls-3" d="M744.18,451.86c-2.8-.36-5.98-.25-8.4-1.81,2.3-1.79,7.38-.99,8.4,1.81Z"/><path class="cls-3" d="M734.23,449.98c-2.21-.1-4.67.55-6.46-1.01.7-1.27,2.35-.96,3.73-1.09,1.2-.11,3.26.27,2.73,2.1Z"/><path class="cls-3" d="M716.18,447.86c-.74-.03-1.7.24-2.59.18-.76-.05-2.55-.41-1.81-1.83.85.02,2.39-.45,3.44-.13.6.18,1.58.75.97,1.78Z"/><path class="cls-3" d="M724.19,448.86c-1.1-.04-2.87.46-3.39-.8.68-.38,1.6-1.56,2.62-1.05.66.33,1.36,1.11.78,1.85Z"/><path class="cls-3" d="M706.16,446.11c.21.97-1.09.76-1.66.82-.7.07-1.24-.68-1.72-.97-.12-.91,1.07-.85,1.7-.9.69-.06,1.23.67,1.68,1.05Z"/><path class="cls-1" d="M620.43,227.02c-11.69-3.15-22.67-4.86-34.04-7.12,1.39-4.18,5.11-2.86,7.24-4.39,5.33-3.84,10.81-3.8,17.21-3.66.69.01,1.56-2.3,2.22-2.44.87-.19,2.59-.08,3.41,1.13,5.09,7.55,14.57,8.06,10.51,13.87-1.33,1.91-3.32,3.47-6.55,2.61Z"/><path class="cls-4" d="M540.88,762.99c-.59.43.17,2.21,1.07,2.11,7.74-.82,15.24,1.23,22.05-1.1,1.74-.6,4.16.24,6,0-2.45,4.09,13.51.11,19.67,3.66-4.25,7.88-11.61,10.36-19.03,13.07l-24.12,8.79c-6.31,2.3.55.91-8.77,1.67-5.51.45-12.51.83-17.86-1-2.62-1.53-7.04-15.15-7.59-15.87-.49-.64-.77.62-1.12.78-.42.19-.94.25-.89.9.02.32-.05.68-.11,1-1.01-.12-1.86.23-2.42,1.22s-1.54,2.74.42,2.86c-.36.42-.57,1.41-.98,1.83-2.06-.89-3.08,1.76-4.72,2.53-4.66,2.18-10.42-.76-15.14.92-3.91,1.38-6.2-1.27-9.76-1.85-10.34-1.68-27.27-2.53-33.58-11.26-1.79-2.48-3.08-3.94-6.73-5.11,4.36-4.88,17.57.55,15.85-4.15.51.02,1.21-.24,1.69-.08,7.43,2.61,15.78.6,24.08.19,19.88-.96,39.29,1.41,58.13-1.19,1.27-.17,2.57.08,3.84.08Z"/><path class="cls-6" d="M465,763l72.04-.08c-18.84,2.6-38.25.23-58.13,1.19-8.3.4-16.66,2.42-24.08-.19,2.91-1.66,6.76-.91,10.17-.91Z"/><path class="cls-3" d="M576.93,764.13c-2.28,0-4.65-.42-6.93-.13-1.84.24-4.26-.6-6,0v-1c-5.16,0,16.42-3.33,12.93,1.13Z"/><path class="cls-5" d="M537.75,791.19c-1.31,3.86-10.66,8.26-13.8,12.75.81,5.54,2.68,10.34,2.9,16.08l-14.31-7.95-16.21,8.95c.77-5.54,2.55-10.93,4.09-16.91l-14.12-11.75,17.38-2.03c2.53-.3,2.79-5.45,3.52-7.42.41-.42.62-1.41.98-1.83,1.01-1.18,1.74-2.52,2-4.08.05-.32.13-.68.11-1,.32-.28.62-.58.89-.9.35-.16.63-1.42,1.12-.78.55.72,4.96,14.34,7.59,15.87,5.36,1.83,12.35,1.45,17.86,1Z"/><path class="cls-6" d="M564,763v1c-6.82,2.33-14.32.29-22.05,1.1-.89.09-1.65-1.68-1.07-2.11h23.12Z"/><path class="cls-5" d="M274,623c-2.34.54-4.79-1.8-7.27-1.52-3.08.35-5.03,3.98-7.55,5.42.54-2.15.72-6.26-.61-8.48-.95-1.59-3.47-2.25-6.52-3.95,2.4-1.29,5.54-1.45,8.18-3.18,1.67-1.09.72-3.16.96-4.29.16-.72,1.09-1.63,1.12-3.08,2.28,1.23,2.54,4.47,4.98,5.54,2.62,1.16,5.66-.32,8.27.01-1.14,2.2-4.05,3.86-4.36,6.58s2.42,4.7,2.79,6.94Z"/><path class="cls-5" d="M293.22,546.05c-4.79-3.33-8.6-2.34-12.35,2.23-1.18-2.71.88-5.25-.54-7.48-1.59-2.49-4.62-2.46-6.67-4.79,6.36-.18,9.83-2.85,10.36-9.39,2.7,2.26,2.73,4.96,4.42,5.95,2.34,1.38,6.12.99,8.53.66-1.49,1.89-4.4,3.16-5.02,5.79-.57,2.39,1.71,4.07,1.26,7.03Z"/><path class="cls-5" d="M293.93,594.47c-5.02-3.34-8.41-1.45-12.32,3.03-.98-2.77,1.06-5.44-.53-7.74-1.72-2.5-4.99-2.55-7.35-4.61,6.16-.59,10.21-2.88,11.01-8.86,6.24,5.72.13,5.27,12.57,5.42l-3.99,4.75c-1.79,2.12,1.33,3.71.6,8.02Z"/><path class="cls-5" d="M271.74,572.88c-2.23-.86-4.74-3.03-7.45-2.38s-4.17,3.61-6.57,4.64c-.57-2.63,1.13-5.55-.24-7.7-1.75-2.75-5.33-3.11-7.5-5.05,3.22-.87,5.75-.81,7.73-2.02,2.35-1.43,2.79-4.33,3.52-7.53,2.39,1.31,2.57,4.63,5.01,5.73,2.79,1.26,5.92.25,8.72-.35-1.35,2.2-4.18,3.24-5.08,5.96-.95,2.9,1.4,5.28,1.86,8.71Z"/><path class="cls-5" d="M385.77,564.93c.12,1.68,1.11,3.26,2.29,3.78,2.01.9,4.35.47,6.66.68-1.2,1.72-2.88,3.01-3.45,4.67-.73,2.13.75,4.18,1.52,6.04-3.56,2.06-2.86-4.7-11.33,2.46.31-10.24-2.38-6.01-5.94-10.97,11.2-.38,6.54-8.65,10.25-6.66Z"/><path class="cls-5" d="M392.62,537.1c-4.38-2.19-7.69-1.51-11.28,1.59,1.04-5.37-.22-8.33-4.85-10.36,5.23-.9,7.58-2.68,8.57-7.71,1.9,1.9,1.76,3.98,3.13,4.91,2.15,1.45,4.19.13,7.03,1.09-3.66,3.11-4.19,5.46-2.62,10.48Z"/><circle class="cls-4" cx="626" cy="363" r="1.11"/><path class="cls-6" d="M510.18,777c-.26,1.57-.99,2.9-2,4.08-1.96-.13-.95-1.91-.42-2.86s1.41-1.34,2.42-1.22Z"/><path class="cls-6" d="M510.29,776c-.05-.66.47-.71.89-.9-.27.32-.57.62-.89.9Z"/></g></svg>